<?xml version="1.0" encoding="utf-8" standalone="no"?>
<!DOCTYPE svg PUBLIC "-//W3C//DTD SVG 1.1//EN"
  "http://www.w3.org/Graphics/SVG/1.1/DTD/svg11.dtd">
<!-- Created with matplotlib (https://matplotlib.org/) -->
<svg height="567.754687pt" version="1.1" viewBox="0 0 534.773438 567.754687" width="534.773438pt" xmlns="http://www.w3.org/2000/svg" xmlns:xlink="http://www.w3.org/1999/xlink">
 <metadata>
  <rdf:RDF xmlns:cc="http://creativecommons.org/ns#" xmlns:dc="http://purl.org/dc/elements/1.1/" xmlns:rdf="http://www.w3.org/1999/02/22-rdf-syntax-ns#">
   <cc:Work>
    <dc:type rdf:resource="http://purl.org/dc/dcmitype/StillImage"/>
    <dc:date>2021-09-09T14:31:54.530959</dc:date>
    <dc:format>image/svg+xml</dc:format>
    <dc:creator>
     <cc:Agent>
      <dc:title>Matplotlib v3.3.4, https://matplotlib.org/</dc:title>
     </cc:Agent>
    </dc:creator>
   </cc:Work>
  </rdf:RDF>
 </metadata>
 <defs>
  <style type="text/css">*{stroke-linecap:butt;stroke-linejoin:round;}</style>
 </defs>
 <g id="figure_1">
  <g id="patch_1">
   <path d="M 0 567.754687 
L 534.773438 567.754687 
L 534.773438 0 
L 0 0 
z
" style="fill:none;"/>
  </g>
  <g id="axes_1">
   <g id="patch_2">
    <path d="M 77.154688 70.865104 
L 335.398438 70.865104 
L 335.398438 17.798437 
L 77.154688 17.798437 
z
" style="fill:#ffffff;"/>
   </g>
   <g id="matplotlib.axis_1">
    <g id="xtick_1">
     <g id="line2d_1">
      <defs>
       <path d="M 0 0 
L 0 3.5 
" id="m0a04684ab3" style="stroke:#000000;stroke-width:0.8;"/>
      </defs>
      <g>
       <use style="stroke:#000000;stroke-width:0.8;" x="77.154688" xlink:href="#m0a04684ab3" y="70.865104"/>
      </g>
     </g>
     <g id="text_1">
      <!-- 0 -->
      <g transform="translate(73.973438 85.463542)scale(0.1 -0.1)">
       <defs>
        <path d="M 31.78125 66.40625 
Q 24.171875 66.40625 20.328125 58.90625 
Q 16.5 51.421875 16.5 36.375 
Q 16.5 21.390625 20.328125 13.890625 
Q 24.171875 6.390625 31.78125 6.390625 
Q 39.453125 6.390625 43.28125 13.890625 
Q 47.125 21.390625 47.125 36.375 
Q 47.125 51.421875 43.28125 58.90625 
Q 39.453125 66.40625 31.78125 66.40625 
z
M 31.78125 74.21875 
Q 44.046875 74.21875 50.515625 64.515625 
Q 56.984375 54.828125 56.984375 36.375 
Q 56.984375 17.96875 50.515625 8.265625 
Q 44.046875 -1.421875 31.78125 -1.421875 
Q 19.53125 -1.421875 13.0625 8.265625 
Q 6.59375 17.96875 6.59375 36.375 
Q 6.59375 54.828125 13.0625 64.515625 
Q 19.53125 74.21875 31.78125 74.21875 
z
" id="DejaVuSans-48"/>
       </defs>
       <use xlink:href="#DejaVuSans-48"/>
      </g>
     </g>
    </g>
    <g id="xtick_2">
     <g id="line2d_2">
      <g>
       <use style="stroke:#000000;stroke-width:0.8;" x="128.803438" xlink:href="#m0a04684ab3" y="70.865104"/>
      </g>
     </g>
     <g id="text_2">
      <!-- 2 -->
      <g transform="translate(125.622187 85.463542)scale(0.1 -0.1)">
       <defs>
        <path d="M 19.1875 8.296875 
L 53.609375 8.296875 
L 53.609375 0 
L 7.328125 0 
L 7.328125 8.296875 
Q 12.9375 14.109375 22.625 23.890625 
Q 32.328125 33.6875 34.8125 36.53125 
Q 39.546875 41.84375 41.421875 45.53125 
Q 43.3125 49.21875 43.3125 52.78125 
Q 43.3125 58.59375 39.234375 62.25 
Q 35.15625 65.921875 28.609375 65.921875 
Q 23.96875 65.921875 18.8125 64.3125 
Q 13.671875 62.703125 7.8125 59.421875 
L 7.8125 69.390625 
Q 13.765625 71.78125 18.9375 73 
Q 24.125 74.21875 28.421875 74.21875 
Q 39.75 74.21875 46.484375 68.546875 
Q 53.21875 62.890625 53.21875 53.421875 
Q 53.21875 48.921875 51.53125 44.890625 
Q 49.859375 40.875 45.40625 35.40625 
Q 44.1875 33.984375 37.640625 27.21875 
Q 31.109375 20.453125 19.1875 8.296875 
z
" id="DejaVuSans-50"/>
       </defs>
       <use xlink:href="#DejaVuSans-50"/>
      </g>
     </g>
    </g>
    <g id="xtick_3">
     <g id="line2d_3">
      <g>
       <use style="stroke:#000000;stroke-width:0.8;" x="180.452188" xlink:href="#m0a04684ab3" y="70.865104"/>
      </g>
     </g>
     <g id="text_3">
      <!-- 4 -->
      <g transform="translate(177.270938 85.463542)scale(0.1 -0.1)">
       <defs>
        <path d="M 37.796875 64.3125 
L 12.890625 25.390625 
L 37.796875 25.390625 
z
M 35.203125 72.90625 
L 47.609375 72.90625 
L 47.609375 25.390625 
L 58.015625 25.390625 
L 58.015625 17.1875 
L 47.609375 17.1875 
L 47.609375 0 
L 37.796875 0 
L 37.796875 17.1875 
L 4.890625 17.1875 
L 4.890625 26.703125 
z
" id="DejaVuSans-52"/>
       </defs>
       <use xlink:href="#DejaVuSans-52"/>
      </g>
     </g>
    </g>
    <g id="xtick_4">
     <g id="line2d_4">
      <g>
       <use style="stroke:#000000;stroke-width:0.8;" x="232.100937" xlink:href="#m0a04684ab3" y="70.865104"/>
      </g>
     </g>
     <g id="text_4">
      <!-- 6 -->
      <g transform="translate(228.919687 85.463542)scale(0.1 -0.1)">
       <defs>
        <path d="M 33.015625 40.375 
Q 26.375 40.375 22.484375 35.828125 
Q 18.609375 31.296875 18.609375 23.390625 
Q 18.609375 15.53125 22.484375 10.953125 
Q 26.375 6.390625 33.015625 6.390625 
Q 39.65625 6.390625 43.53125 10.953125 
Q 47.40625 15.53125 47.40625 23.390625 
Q 47.40625 31.296875 43.53125 35.828125 
Q 39.65625 40.375 33.015625 40.375 
z
M 52.59375 71.296875 
L 52.59375 62.3125 
Q 48.875 64.0625 45.09375 64.984375 
Q 41.3125 65.921875 37.59375 65.921875 
Q 27.828125 65.921875 22.671875 59.328125 
Q 17.53125 52.734375 16.796875 39.40625 
Q 19.671875 43.65625 24.015625 45.921875 
Q 28.375 48.1875 33.59375 48.1875 
Q 44.578125 48.1875 50.953125 41.515625 
Q 57.328125 34.859375 57.328125 23.390625 
Q 57.328125 12.15625 50.6875 5.359375 
Q 44.046875 -1.421875 33.015625 -1.421875 
Q 20.359375 -1.421875 13.671875 8.265625 
Q 6.984375 17.96875 6.984375 36.375 
Q 6.984375 53.65625 15.1875 63.9375 
Q 23.390625 74.21875 37.203125 74.21875 
Q 40.921875 74.21875 44.703125 73.484375 
Q 48.484375 72.75 52.59375 71.296875 
z
" id="DejaVuSans-54"/>
       </defs>
       <use xlink:href="#DejaVuSans-54"/>
      </g>
     </g>
    </g>
    <g id="xtick_5">
     <g id="line2d_5">
      <g>
       <use style="stroke:#000000;stroke-width:0.8;" x="283.749687" xlink:href="#m0a04684ab3" y="70.865104"/>
      </g>
     </g>
     <g id="text_5">
      <!-- 8 -->
      <g transform="translate(280.568438 85.463542)scale(0.1 -0.1)">
       <defs>
        <path d="M 31.78125 34.625 
Q 24.75 34.625 20.71875 30.859375 
Q 16.703125 27.09375 16.703125 20.515625 
Q 16.703125 13.921875 20.71875 10.15625 
Q 24.75 6.390625 31.78125 6.390625 
Q 38.8125 6.390625 42.859375 10.171875 
Q 46.921875 13.96875 46.921875 20.515625 
Q 46.921875 27.09375 42.890625 30.859375 
Q 38.875 34.625 31.78125 34.625 
z
M 21.921875 38.8125 
Q 15.578125 40.375 12.03125 44.71875 
Q 8.5 49.078125 8.5 55.328125 
Q 8.5 64.0625 14.71875 69.140625 
Q 20.953125 74.21875 31.78125 74.21875 
Q 42.671875 74.21875 48.875 69.140625 
Q 55.078125 64.0625 55.078125 55.328125 
Q 55.078125 49.078125 51.53125 44.71875 
Q 48 40.375 41.703125 38.8125 
Q 48.828125 37.15625 52.796875 32.3125 
Q 56.78125 27.484375 56.78125 20.515625 
Q 56.78125 9.90625 50.3125 4.234375 
Q 43.84375 -1.421875 31.78125 -1.421875 
Q 19.734375 -1.421875 13.25 4.234375 
Q 6.78125 9.90625 6.78125 20.515625 
Q 6.78125 27.484375 10.78125 32.3125 
Q 14.796875 37.15625 21.921875 38.8125 
z
M 18.3125 54.390625 
Q 18.3125 48.734375 21.84375 45.5625 
Q 25.390625 42.390625 31.78125 42.390625 
Q 38.140625 42.390625 41.71875 45.5625 
Q 45.3125 48.734375 45.3125 54.390625 
Q 45.3125 60.0625 41.71875 63.234375 
Q 38.140625 66.40625 31.78125 66.40625 
Q 25.390625 66.40625 21.84375 63.234375 
Q 18.3125 60.0625 18.3125 54.390625 
z
" id="DejaVuSans-56"/>
       </defs>
       <use xlink:href="#DejaVuSans-56"/>
      </g>
     </g>
    </g>
    <g id="xtick_6">
     <g id="line2d_6">
      <g>
       <use style="stroke:#000000;stroke-width:0.8;" x="335.398438" xlink:href="#m0a04684ab3" y="70.865104"/>
      </g>
     </g>
     <g id="text_6">
      <!-- 10 -->
      <g transform="translate(329.035937 85.463542)scale(0.1 -0.1)">
       <defs>
        <path d="M 12.40625 8.296875 
L 28.515625 8.296875 
L 28.515625 63.921875 
L 10.984375 60.40625 
L 10.984375 69.390625 
L 28.421875 72.90625 
L 38.28125 72.90625 
L 38.28125 8.296875 
L 54.390625 8.296875 
L 54.390625 0 
L 12.40625 0 
z
" id="DejaVuSans-49"/>
       </defs>
       <use xlink:href="#DejaVuSans-49"/>
       <use x="63.623047" xlink:href="#DejaVuSans-48"/>
      </g>
     </g>
    </g>
   </g>
   <g id="matplotlib.axis_2">
    <g id="ytick_1">
     <g id="line2d_7">
      <defs>
       <path d="M 0 0 
L -3.5 0 
" id="m21c3c7b068" style="stroke:#000000;stroke-width:0.8;"/>
      </defs>
      <g>
       <use style="stroke:#000000;stroke-width:0.8;" x="77.154688" xlink:href="#m21c3c7b068" y="66.272415"/>
      </g>
     </g>
     <g id="text_7">
      <!-- −2.5 -->
      <g transform="translate(45.871875 70.071634)scale(0.1 -0.1)">
       <defs>
        <path d="M 10.59375 35.5 
L 73.1875 35.5 
L 73.1875 27.203125 
L 10.59375 27.203125 
z
" id="DejaVuSans-8722"/>
        <path d="M 10.6875 12.40625 
L 21 12.40625 
L 21 0 
L 10.6875 0 
z
" id="DejaVuSans-46"/>
        <path d="M 10.796875 72.90625 
L 49.515625 72.90625 
L 49.515625 64.59375 
L 19.828125 64.59375 
L 19.828125 46.734375 
Q 21.96875 47.46875 24.109375 47.828125 
Q 26.265625 48.1875 28.421875 48.1875 
Q 40.625 48.1875 47.75 41.5 
Q 54.890625 34.8125 54.890625 23.390625 
Q 54.890625 11.625 47.5625 5.09375 
Q 40.234375 -1.421875 26.90625 -1.421875 
Q 22.3125 -1.421875 17.546875 -0.640625 
Q 12.796875 0.140625 7.71875 1.703125 
L 7.71875 11.625 
Q 12.109375 9.234375 16.796875 8.0625 
Q 21.484375 6.890625 26.703125 6.890625 
Q 35.15625 6.890625 40.078125 11.328125 
Q 45.015625 15.765625 45.015625 23.390625 
Q 45.015625 31 40.078125 35.4375 
Q 35.15625 39.890625 26.703125 39.890625 
Q 22.75 39.890625 18.8125 39.015625 
Q 14.890625 38.140625 10.796875 36.28125 
z
" id="DejaVuSans-53"/>
       </defs>
       <use xlink:href="#DejaVuSans-8722"/>
       <use x="83.789062" xlink:href="#DejaVuSans-50"/>
       <use x="147.412109" xlink:href="#DejaVuSans-46"/>
       <use x="179.199219" xlink:href="#DejaVuSans-53"/>
      </g>
     </g>
    </g>
    <g id="ytick_2">
     <g id="line2d_8">
      <g>
       <use style="stroke:#000000;stroke-width:0.8;" x="77.154688" xlink:href="#m21c3c7b068" y="43.361621"/>
      </g>
     </g>
     <g id="text_8">
      <!-- 0.0 -->
      <g transform="translate(54.251563 47.16084)scale(0.1 -0.1)">
       <use xlink:href="#DejaVuSans-48"/>
       <use x="63.623047" xlink:href="#DejaVuSans-46"/>
       <use x="95.410156" xlink:href="#DejaVuSans-48"/>
      </g>
     </g>
    </g>
    <g id="ytick_3">
     <g id="line2d_9">
      <g>
       <use style="stroke:#000000;stroke-width:0.8;" x="77.154688" xlink:href="#m21c3c7b068" y="20.450826"/>
      </g>
     </g>
     <g id="text_9">
      <!-- 2.5 -->
      <g transform="translate(54.251563 24.250045)scale(0.1 -0.1)">
       <use xlink:href="#DejaVuSans-50"/>
       <use x="63.623047" xlink:href="#DejaVuSans-46"/>
       <use x="95.410156" xlink:href="#DejaVuSans-53"/>
      </g>
     </g>
    </g>
    <g id="text_10">
     <!-- $\ddot{\theta}$ (rad/s$^2$) -->
     <g transform="translate(39.792187 67.881771)rotate(-90)scale(0.1 -0.1)">
      <defs>
       <path d="M -20.40625 75.78125 
L -10.5 75.78125 
L -10.5 65.921875 
L -20.40625 65.921875 
z
M -39.5 75.78125 
L -29.59375 75.78125 
L -29.59375 65.921875 
L -39.5 65.921875 
z
M -25 56 
z
" id="DejaVuSans-776"/>
       <path d="M 45.515625 34.671875 
L 14.453125 34.671875 
Q 12.359375 20.0625 14.5 13.875 
Q 17.1875 6.25 24.46875 6.25 
Q 31.78125 6.25 37.359375 13.921875 
Q 42.234375 20.65625 45.515625 34.671875 
z
M 47.015625 42.96875 
Q 48.34375 56.84375 46.625 61.71875 
Q 43.953125 69.4375 36.765625 69.4375 
Q 29.296875 69.4375 23.828125 61.8125 
Q 19.53125 55.671875 16.15625 42.96875 
z
M 38.1875 76.765625 
Q 49.90625 76.765625 54.59375 66.40625 
Q 59.28125 56.109375 55.71875 37.84375 
Q 52.203125 19.625 43.453125 9.28125 
Q 34.765625 -1.125 23.046875 -1.125 
Q 11.28125 -1.125 6.640625 9.28125 
Q 2 19.625 5.515625 37.84375 
Q 9.078125 56.109375 17.71875 66.40625 
Q 26.421875 76.765625 38.1875 76.765625 
z
" id="DejaVuSans-Oblique-952"/>
       <path id="DejaVuSans-32"/>
       <path d="M 31 75.875 
Q 24.46875 64.65625 21.28125 53.65625 
Q 18.109375 42.671875 18.109375 31.390625 
Q 18.109375 20.125 21.3125 9.0625 
Q 24.515625 -2 31 -13.1875 
L 23.1875 -13.1875 
Q 15.875 -1.703125 12.234375 9.375 
Q 8.59375 20.453125 8.59375 31.390625 
Q 8.59375 42.28125 12.203125 53.3125 
Q 15.828125 64.359375 23.1875 75.875 
z
" id="DejaVuSans-40"/>
       <path d="M 41.109375 46.296875 
Q 39.59375 47.171875 37.8125 47.578125 
Q 36.03125 48 33.890625 48 
Q 26.265625 48 22.1875 43.046875 
Q 18.109375 38.09375 18.109375 28.8125 
L 18.109375 0 
L 9.078125 0 
L 9.078125 54.6875 
L 18.109375 54.6875 
L 18.109375 46.1875 
Q 20.953125 51.171875 25.484375 53.578125 
Q 30.03125 56 36.53125 56 
Q 37.453125 56 38.578125 55.875 
Q 39.703125 55.765625 41.0625 55.515625 
z
" id="DejaVuSans-114"/>
       <path d="M 34.28125 27.484375 
Q 23.390625 27.484375 19.1875 25 
Q 14.984375 22.515625 14.984375 16.5 
Q 14.984375 11.71875 18.140625 8.90625 
Q 21.296875 6.109375 26.703125 6.109375 
Q 34.1875 6.109375 38.703125 11.40625 
Q 43.21875 16.703125 43.21875 25.484375 
L 43.21875 27.484375 
z
M 52.203125 31.203125 
L 52.203125 0 
L 43.21875 0 
L 43.21875 8.296875 
Q 40.140625 3.328125 35.546875 0.953125 
Q 30.953125 -1.421875 24.3125 -1.421875 
Q 15.921875 -1.421875 10.953125 3.296875 
Q 6 8.015625 6 15.921875 
Q 6 25.140625 12.171875 29.828125 
Q 18.359375 34.515625 30.609375 34.515625 
L 43.21875 34.515625 
L 43.21875 35.40625 
Q 43.21875 41.609375 39.140625 45 
Q 35.0625 48.390625 27.6875 48.390625 
Q 23 48.390625 18.546875 47.265625 
Q 14.109375 46.140625 10.015625 43.890625 
L 10.015625 52.203125 
Q 14.9375 54.109375 19.578125 55.046875 
Q 24.21875 56 28.609375 56 
Q 40.484375 56 46.34375 49.84375 
Q 52.203125 43.703125 52.203125 31.203125 
z
" id="DejaVuSans-97"/>
       <path d="M 45.40625 46.390625 
L 45.40625 75.984375 
L 54.390625 75.984375 
L 54.390625 0 
L 45.40625 0 
L 45.40625 8.203125 
Q 42.578125 3.328125 38.25 0.953125 
Q 33.9375 -1.421875 27.875 -1.421875 
Q 17.96875 -1.421875 11.734375 6.484375 
Q 5.515625 14.40625 5.515625 27.296875 
Q 5.515625 40.1875 11.734375 48.09375 
Q 17.96875 56 27.875 56 
Q 33.9375 56 38.25 53.625 
Q 42.578125 51.265625 45.40625 46.390625 
z
M 14.796875 27.296875 
Q 14.796875 17.390625 18.875 11.75 
Q 22.953125 6.109375 30.078125 6.109375 
Q 37.203125 6.109375 41.296875 11.75 
Q 45.40625 17.390625 45.40625 27.296875 
Q 45.40625 37.203125 41.296875 42.84375 
Q 37.203125 48.484375 30.078125 48.484375 
Q 22.953125 48.484375 18.875 42.84375 
Q 14.796875 37.203125 14.796875 27.296875 
z
" id="DejaVuSans-100"/>
       <path d="M 25.390625 72.90625 
L 33.6875 72.90625 
L 8.296875 -9.28125 
L 0 -9.28125 
z
" id="DejaVuSans-47"/>
       <path d="M 44.28125 53.078125 
L 44.28125 44.578125 
Q 40.484375 46.53125 36.375 47.5 
Q 32.28125 48.484375 27.875 48.484375 
Q 21.1875 48.484375 17.84375 46.4375 
Q 14.5 44.390625 14.5 40.28125 
Q 14.5 37.15625 16.890625 35.375 
Q 19.28125 33.59375 26.515625 31.984375 
L 29.59375 31.296875 
Q 39.15625 29.25 43.1875 25.515625 
Q 47.21875 21.78125 47.21875 15.09375 
Q 47.21875 7.46875 41.1875 3.015625 
Q 35.15625 -1.421875 24.609375 -1.421875 
Q 20.21875 -1.421875 15.453125 -0.5625 
Q 10.6875 0.296875 5.421875 2 
L 5.421875 11.28125 
Q 10.40625 8.6875 15.234375 7.390625 
Q 20.0625 6.109375 24.8125 6.109375 
Q 31.15625 6.109375 34.5625 8.28125 
Q 37.984375 10.453125 37.984375 14.40625 
Q 37.984375 18.0625 35.515625 20.015625 
Q 33.0625 21.96875 24.703125 23.78125 
L 21.578125 24.515625 
Q 13.234375 26.265625 9.515625 29.90625 
Q 5.8125 33.546875 5.8125 39.890625 
Q 5.8125 47.609375 11.28125 51.796875 
Q 16.75 56 26.8125 56 
Q 31.78125 56 36.171875 55.265625 
Q 40.578125 54.546875 44.28125 53.078125 
z
" id="DejaVuSans-115"/>
       <path d="M 8.015625 75.875 
L 15.828125 75.875 
Q 23.140625 64.359375 26.78125 53.3125 
Q 30.421875 42.28125 30.421875 31.390625 
Q 30.421875 20.453125 26.78125 9.375 
Q 23.140625 -1.703125 15.828125 -13.1875 
L 8.015625 -13.1875 
Q 14.5 -2 17.703125 9.0625 
Q 20.90625 20.125 20.90625 31.390625 
Q 20.90625 42.671875 17.703125 53.65625 
Q 14.5 64.65625 8.015625 75.875 
z
" id="DejaVuSans-41"/>
      </defs>
      <use transform="translate(62.79541 34.21875)" xlink:href="#DejaVuSans-776"/>
      <use transform="translate(0 0.953125)" xlink:href="#DejaVuSans-Oblique-952"/>
      <use transform="translate(61.181641 0.953125)" xlink:href="#DejaVuSans-32"/>
      <use transform="translate(92.96875 0.953125)" xlink:href="#DejaVuSans-40"/>
      <use transform="translate(131.982422 0.953125)" xlink:href="#DejaVuSans-114"/>
      <use transform="translate(173.095703 0.953125)" xlink:href="#DejaVuSans-97"/>
      <use transform="translate(234.375 0.953125)" xlink:href="#DejaVuSans-100"/>
      <use transform="translate(297.851562 0.953125)" xlink:href="#DejaVuSans-47"/>
      <use transform="translate(331.542969 0.953125)" xlink:href="#DejaVuSans-115"/>
      <use transform="translate(384.599609 39.234375)scale(0.7)" xlink:href="#DejaVuSans-50"/>
      <use transform="translate(431.870117 0.953125)" xlink:href="#DejaVuSans-41"/>
     </g>
    </g>
    <g id="text_11">
     <!-- 1e8 -->
     <g transform="translate(77.154688 14.798437)scale(0.1 -0.1)">
      <defs>
       <path d="M 56.203125 29.59375 
L 56.203125 25.203125 
L 14.890625 25.203125 
Q 15.484375 15.921875 20.484375 11.0625 
Q 25.484375 6.203125 34.421875 6.203125 
Q 39.59375 6.203125 44.453125 7.46875 
Q 49.3125 8.734375 54.109375 11.28125 
L 54.109375 2.78125 
Q 49.265625 0.734375 44.1875 -0.34375 
Q 39.109375 -1.421875 33.890625 -1.421875 
Q 20.796875 -1.421875 13.15625 6.1875 
Q 5.515625 13.8125 5.515625 26.8125 
Q 5.515625 40.234375 12.765625 48.109375 
Q 20.015625 56 32.328125 56 
Q 43.359375 56 49.78125 48.890625 
Q 56.203125 41.796875 56.203125 29.59375 
z
M 47.21875 32.234375 
Q 47.125 39.59375 43.09375 43.984375 
Q 39.0625 48.390625 32.421875 48.390625 
Q 24.90625 48.390625 20.390625 44.140625 
Q 15.875 39.890625 15.1875 32.171875 
z
" id="DejaVuSans-101"/>
      </defs>
      <use xlink:href="#DejaVuSans-49"/>
      <use x="63.623047" xlink:href="#DejaVuSans-101"/>
      <use x="125.146484" xlink:href="#DejaVuSans-56"/>
     </g>
    </g>
   </g>
   <g id="LineCollection_1">
    <path clip-path="url(#p4b8810a57f)" d="M 206.276563 70.865104 
L 206.276563 17.798437 
" style="fill:none;stroke:#000000;stroke-width:1.5;"/>
   </g>
   <g id="line2d_10">
    <path clip-path="url(#p4b8810a57f)" d="M 77.154688 43.361622 
L 335.140194 43.361622 
L 335.140194 43.361622 
" style="fill:none;stroke:#1f77b4;stroke-linecap:square;stroke-width:1.5;"/>
   </g>
   <g id="line2d_11">
    <path clip-path="url(#p4b8810a57f)" d="M 77.154688 43.361621 
L 335.140194 43.36162 
L 335.140194 43.36162 
" style="fill:none;stroke:#ff0000;stroke-dasharray:5.55,2.4;stroke-dashoffset:0;stroke-width:1.5;"/>
   </g>
   <g id="line2d_12">
    <path clip-path="url(#p4b8810a57f)" d="M 77.154688 43.361621 
L 99.621894 43.363158 
L 99.880138 43.225414 
L 100.138381 43.365165 
L 102.462575 43.362156 
L 102.979063 43.997793 
L 103.237306 43.33522 
L 103.49555 41.982737 
L 103.753794 43.631914 
L 104.012038 43.342679 
L 104.270281 43.444765 
L 104.786769 43.361621 
L 240.881225 43.362797 
L 241.139469 43.516612 
L 241.397712 43.361711 
L 242.172444 43.362466 
L 242.430687 43.536283 
L 242.688931 43.361724 
L 243.98015 43.348842 
L 244.238394 42.802941 
L 244.496637 43.361616 
L 245.013125 43.363551 
L 245.271369 42.706838 
L 245.529612 43.362869 
L 249.919756 43.361592 
L 250.178 43.767881 
L 250.436244 43.361093 
L 250.952731 43.361396 
L 251.210975 44.22529 
L 251.469219 43.359481 
L 254.568144 43.369773 
L 254.826387 44.220171 
L 255.084631 43.446446 
L 255.342875 43.864798 
L 255.601119 43.363404 
L 256.37585 43.360851 
L 256.634094 43.729373 
L 256.892337 43.358251 
L 257.150581 53.859067 
L 257.408825 43.361389 
L 258.183556 43.361553 
L 258.4418 20.210559 
L 258.958287 57.498879 
L 259.216531 43.360788 
L 259.474775 43.354594 
L 259.733019 42.053349 
L 259.991262 68.452983 
L 260.249506 43.361621 
L 335.140194 43.361621 
L 335.140194 43.361621 
" style="fill:none;stroke:#008000;stroke-dasharray:1.5,2.475;stroke-dashoffset:0;stroke-width:1.5;"/>
   </g>
   <g id="patch_3">
    <path d="M 77.154688 70.865104 
L 77.154688 17.798437 
" style="fill:none;stroke:#000000;stroke-linecap:square;stroke-linejoin:miter;stroke-width:0.8;"/>
   </g>
   <g id="patch_4">
    <path d="M 335.398438 70.865104 
L 335.398438 17.798437 
" style="fill:none;stroke:#000000;stroke-linecap:square;stroke-linejoin:miter;stroke-width:0.8;"/>
   </g>
   <g id="patch_5">
    <path d="M 77.154688 70.865104 
L 335.398438 70.865104 
" style="fill:none;stroke:#000000;stroke-linecap:square;stroke-linejoin:miter;stroke-width:0.8;"/>
   </g>
   <g id="patch_6">
    <path d="M 77.154688 17.798437 
L 335.398438 17.798437 
" style="fill:none;stroke:#000000;stroke-linecap:square;stroke-linejoin:miter;stroke-width:0.8;"/>
   </g>
  </g>
  <g id="axes_2">
   <g id="patch_7">
    <path d="M 77.154688 162.731771 
L 335.398438 162.731771 
L 335.398438 109.665104 
L 77.154688 109.665104 
z
" style="fill:#ffffff;"/>
   </g>
   <g id="matplotlib.axis_3">
    <g id="xtick_7">
     <g id="line2d_13">
      <g>
       <use style="stroke:#000000;stroke-width:0.8;" x="77.154688" xlink:href="#m0a04684ab3" y="162.731771"/>
      </g>
     </g>
     <g id="text_12">
      <!-- 0 -->
      <g transform="translate(73.973438 177.330208)scale(0.1 -0.1)">
       <use xlink:href="#DejaVuSans-48"/>
      </g>
     </g>
    </g>
    <g id="xtick_8">
     <g id="line2d_14">
      <g>
       <use style="stroke:#000000;stroke-width:0.8;" x="128.803438" xlink:href="#m0a04684ab3" y="162.731771"/>
      </g>
     </g>
     <g id="text_13">
      <!-- 2 -->
      <g transform="translate(125.622187 177.330208)scale(0.1 -0.1)">
       <use xlink:href="#DejaVuSans-50"/>
      </g>
     </g>
    </g>
    <g id="xtick_9">
     <g id="line2d_15">
      <g>
       <use style="stroke:#000000;stroke-width:0.8;" x="180.452188" xlink:href="#m0a04684ab3" y="162.731771"/>
      </g>
     </g>
     <g id="text_14">
      <!-- 4 -->
      <g transform="translate(177.270938 177.330208)scale(0.1 -0.1)">
       <use xlink:href="#DejaVuSans-52"/>
      </g>
     </g>
    </g>
    <g id="xtick_10">
     <g id="line2d_16">
      <g>
       <use style="stroke:#000000;stroke-width:0.8;" x="232.100937" xlink:href="#m0a04684ab3" y="162.731771"/>
      </g>
     </g>
     <g id="text_15">
      <!-- 6 -->
      <g transform="translate(228.919687 177.330208)scale(0.1 -0.1)">
       <use xlink:href="#DejaVuSans-54"/>
      </g>
     </g>
    </g>
    <g id="xtick_11">
     <g id="line2d_17">
      <g>
       <use style="stroke:#000000;stroke-width:0.8;" x="283.749687" xlink:href="#m0a04684ab3" y="162.731771"/>
      </g>
     </g>
     <g id="text_16">
      <!-- 8 -->
      <g transform="translate(280.568438 177.330208)scale(0.1 -0.1)">
       <use xlink:href="#DejaVuSans-56"/>
      </g>
     </g>
    </g>
    <g id="xtick_12">
     <g id="line2d_18">
      <g>
       <use style="stroke:#000000;stroke-width:0.8;" x="335.398438" xlink:href="#m0a04684ab3" y="162.731771"/>
      </g>
     </g>
     <g id="text_17">
      <!-- 10 -->
      <g transform="translate(329.035937 177.330208)scale(0.1 -0.1)">
       <use xlink:href="#DejaVuSans-49"/>
       <use x="63.623047" xlink:href="#DejaVuSans-48"/>
      </g>
     </g>
    </g>
   </g>
   <g id="matplotlib.axis_4">
    <g id="ytick_4">
     <g id="line2d_19">
      <g>
       <use style="stroke:#000000;stroke-width:0.8;" x="77.154688" xlink:href="#m21c3c7b068" y="161.229187"/>
      </g>
     </g>
     <g id="text_18">
      <!-- −2 -->
      <g transform="translate(55.4125 165.028405)scale(0.1 -0.1)">
       <use xlink:href="#DejaVuSans-8722"/>
       <use x="83.789062" xlink:href="#DejaVuSans-50"/>
      </g>
     </g>
    </g>
    <g id="ytick_5">
     <g id="line2d_20">
      <g>
       <use style="stroke:#000000;stroke-width:0.8;" x="77.154688" xlink:href="#m21c3c7b068" y="125.05133"/>
      </g>
     </g>
     <g id="text_19">
      <!-- 0 -->
      <g transform="translate(63.792188 128.850548)scale(0.1 -0.1)">
       <use xlink:href="#DejaVuSans-48"/>
      </g>
     </g>
    </g>
    <g id="text_20">
     <!-- $\ddot{\phi}$ (rad/s$^2$) -->
     <g transform="translate(49.3125 159.998437)rotate(-90)scale(0.1 -0.1)">
      <defs>
       <path d="M 46.734375 75.984375 
L 42.78125 55.8125 
Q 52.546875 55.8125 57.5625 48.34375 
Q 62.75 40.71875 60.15625 27.296875 
Q 57.515625 13.875 49.359375 6.25 
Q 41.453125 -1.21875 31.6875 -1.21875 
L 27.875 -20.796875 
L 18.953125 -20.796875 
L 22.75 -1.21875 
Q 13.03125 -1.21875 7.953125 6.25 
Q 2.78125 13.875 5.421875 27.296875 
Q 8.015625 40.71875 16.15625 48.34375 
Q 24.125 55.8125 33.84375 55.8125 
L 37.796875 75.984375 
z
M 33.25 6.78125 
Q 38.765625 6.78125 43.5 11.8125 
Q 48.6875 17.4375 50.6875 27.296875 
Q 52.640625 37.0625 49.515625 42.78125 
Q 46.734375 47.796875 41.21875 47.796875 
z
M 24.3125 6.78125 
L 32.28125 47.796875 
Q 26.8125 47.796875 22.078125 42.78125 
Q 16.75 37.0625 14.890625 27.296875 
Q 13.03125 17.4375 16.0625 11.8125 
Q 18.796875 6.78125 24.3125 6.78125 
z
" id="DejaVuSans-Oblique-981"/>
      </defs>
      <use transform="translate(65.991699 33.21875)" xlink:href="#DejaVuSans-776"/>
      <use transform="translate(0 0.734375)" xlink:href="#DejaVuSans-Oblique-981"/>
      <use transform="translate(65.966797 0.734375)" xlink:href="#DejaVuSans-32"/>
      <use transform="translate(97.753906 0.734375)" xlink:href="#DejaVuSans-40"/>
      <use transform="translate(136.767578 0.734375)" xlink:href="#DejaVuSans-114"/>
      <use transform="translate(177.880859 0.734375)" xlink:href="#DejaVuSans-97"/>
      <use transform="translate(239.160156 0.734375)" xlink:href="#DejaVuSans-100"/>
      <use transform="translate(302.636719 0.734375)" xlink:href="#DejaVuSans-47"/>
      <use transform="translate(336.328125 0.734375)" xlink:href="#DejaVuSans-115"/>
      <use transform="translate(389.384766 39.015625)scale(0.7)" xlink:href="#DejaVuSans-50"/>
      <use transform="translate(436.655273 0.734375)" xlink:href="#DejaVuSans-41"/>
     </g>
    </g>
    <g id="text_21">
     <!-- 1e11 -->
     <g transform="translate(77.154688 106.665104)scale(0.1 -0.1)">
      <use xlink:href="#DejaVuSans-49"/>
      <use x="63.623047" xlink:href="#DejaVuSans-101"/>
      <use x="125.146484" xlink:href="#DejaVuSans-49"/>
      <use x="188.769531" xlink:href="#DejaVuSans-49"/>
     </g>
    </g>
   </g>
   <g id="LineCollection_2">
    <path clip-path="url(#p2a74fbce20)" d="M 206.276563 162.731771 
L 206.276563 109.665104 
" style="fill:none;stroke:#000000;stroke-width:1.5;"/>
   </g>
   <g id="line2d_21">
    <path clip-path="url(#p2a74fbce20)" d="M 77.154688 125.05133 
L 335.140194 125.05133 
L 335.140194 125.05133 
" style="fill:none;stroke:#1f77b4;stroke-linecap:square;stroke-width:1.5;"/>
   </g>
   <g id="line2d_22">
    <path clip-path="url(#p2a74fbce20)" d="M 77.154688 125.05133 
L 335.140194 125.05133 
L 335.140194 125.05133 
" style="fill:none;stroke:#ff0000;stroke-dasharray:5.55,2.4;stroke-dashoffset:0;stroke-width:1.5;"/>
   </g>
   <g id="line2d_23">
    <path clip-path="url(#p2a74fbce20)" d="M 77.154688 125.05133 
L 104.012038 125.126769 
L 104.270281 125.331077 
L 104.528525 125.05133 
L 258.700044 125.04557 
L 258.958287 112.077225 
L 259.216531 124.831034 
L 259.474775 125.021151 
L 259.733019 128.56852 
L 259.991262 160.31965 
L 260.249506 125.05133 
L 335.140194 125.05133 
L 335.140194 125.05133 
" style="fill:none;stroke:#008000;stroke-dasharray:1.5,2.475;stroke-dashoffset:0;stroke-width:1.5;"/>
   </g>
   <g id="patch_8">
    <path d="M 77.154688 162.731771 
L 77.154688 109.665104 
" style="fill:none;stroke:#000000;stroke-linecap:square;stroke-linejoin:miter;stroke-width:0.8;"/>
   </g>
   <g id="patch_9">
    <path d="M 335.398438 162.731771 
L 335.398438 109.665104 
" style="fill:none;stroke:#000000;stroke-linecap:square;stroke-linejoin:miter;stroke-width:0.8;"/>
   </g>
   <g id="patch_10">
    <path d="M 77.154688 162.731771 
L 335.398438 162.731771 
" style="fill:none;stroke:#000000;stroke-linecap:square;stroke-linejoin:miter;stroke-width:0.8;"/>
   </g>
   <g id="patch_11">
    <path d="M 77.154688 109.665104 
L 335.398438 109.665104 
" style="fill:none;stroke:#000000;stroke-linecap:square;stroke-linejoin:miter;stroke-width:0.8;"/>
   </g>
  </g>
  <g id="axes_3">
   <g id="patch_12">
    <path d="M 77.154688 254.598437 
L 335.398438 254.598437 
L 335.398438 201.531771 
L 77.154688 201.531771 
z
" style="fill:#ffffff;"/>
   </g>
   <g id="matplotlib.axis_5">
    <g id="xtick_13">
     <g id="line2d_24">
      <g>
       <use style="stroke:#000000;stroke-width:0.8;" x="77.154688" xlink:href="#m0a04684ab3" y="254.598437"/>
      </g>
     </g>
     <g id="text_22">
      <!-- 0 -->
      <g transform="translate(73.973438 269.196875)scale(0.1 -0.1)">
       <use xlink:href="#DejaVuSans-48"/>
      </g>
     </g>
    </g>
    <g id="xtick_14">
     <g id="line2d_25">
      <g>
       <use style="stroke:#000000;stroke-width:0.8;" x="128.803438" xlink:href="#m0a04684ab3" y="254.598437"/>
      </g>
     </g>
     <g id="text_23">
      <!-- 2 -->
      <g transform="translate(125.622187 269.196875)scale(0.1 -0.1)">
       <use xlink:href="#DejaVuSans-50"/>
      </g>
     </g>
    </g>
    <g id="xtick_15">
     <g id="line2d_26">
      <g>
       <use style="stroke:#000000;stroke-width:0.8;" x="180.452188" xlink:href="#m0a04684ab3" y="254.598437"/>
      </g>
     </g>
     <g id="text_24">
      <!-- 4 -->
      <g transform="translate(177.270938 269.196875)scale(0.1 -0.1)">
       <use xlink:href="#DejaVuSans-52"/>
      </g>
     </g>
    </g>
    <g id="xtick_16">
     <g id="line2d_27">
      <g>
       <use style="stroke:#000000;stroke-width:0.8;" x="232.100937" xlink:href="#m0a04684ab3" y="254.598437"/>
      </g>
     </g>
     <g id="text_25">
      <!-- 6 -->
      <g transform="translate(228.919687 269.196875)scale(0.1 -0.1)">
       <use xlink:href="#DejaVuSans-54"/>
      </g>
     </g>
    </g>
    <g id="xtick_17">
     <g id="line2d_28">
      <g>
       <use style="stroke:#000000;stroke-width:0.8;" x="283.749687" xlink:href="#m0a04684ab3" y="254.598437"/>
      </g>
     </g>
     <g id="text_26">
      <!-- 8 -->
      <g transform="translate(280.568438 269.196875)scale(0.1 -0.1)">
       <use xlink:href="#DejaVuSans-56"/>
      </g>
     </g>
    </g>
    <g id="xtick_18">
     <g id="line2d_29">
      <g>
       <use style="stroke:#000000;stroke-width:0.8;" x="335.398438" xlink:href="#m0a04684ab3" y="254.598437"/>
      </g>
     </g>
     <g id="text_27">
      <!-- 10 -->
      <g transform="translate(329.035937 269.196875)scale(0.1 -0.1)">
       <use xlink:href="#DejaVuSans-49"/>
       <use x="63.623047" xlink:href="#DejaVuSans-48"/>
      </g>
     </g>
    </g>
   </g>
   <g id="matplotlib.axis_6">
    <g id="ytick_6">
     <g id="line2d_30">
      <g>
       <use style="stroke:#000000;stroke-width:0.8;" x="77.154688" xlink:href="#m21c3c7b068" y="245.98243"/>
      </g>
     </g>
     <g id="text_28">
      <!-- −250000 -->
      <g transform="translate(23.6 249.781649)scale(0.1 -0.1)">
       <use xlink:href="#DejaVuSans-8722"/>
       <use x="83.789062" xlink:href="#DejaVuSans-50"/>
       <use x="147.412109" xlink:href="#DejaVuSans-53"/>
       <use x="211.035156" xlink:href="#DejaVuSans-48"/>
       <use x="274.658203" xlink:href="#DejaVuSans-48"/>
       <use x="338.28125" xlink:href="#DejaVuSans-48"/>
       <use x="401.904297" xlink:href="#DejaVuSans-48"/>
      </g>
     </g>
    </g>
    <g id="ytick_7">
     <g id="line2d_31">
      <g>
       <use style="stroke:#000000;stroke-width:0.8;" x="77.154688" xlink:href="#m21c3c7b068" y="218.263835"/>
      </g>
     </g>
     <g id="text_29">
      <!-- 0 -->
      <g transform="translate(63.792188 222.063054)scale(0.1 -0.1)">
       <use xlink:href="#DejaVuSans-48"/>
      </g>
     </g>
    </g>
    <g id="text_30">
     <!-- $\dot{\theta}$ (rad/s) -->
     <g transform="translate(17.520313 249.215104)rotate(-90)scale(0.1 -0.1)">
      <defs>
       <path d="M -29.59375 75.984375 
L -20.609375 75.984375 
L -20.609375 64.59375 
L -29.59375 64.59375 
z
M -25 56 
z
" id="DejaVuSans-775"/>
      </defs>
      <use transform="translate(62.88916 34.015625)" xlink:href="#DejaVuSans-775"/>
      <use transform="translate(0 0.75)" xlink:href="#DejaVuSans-Oblique-952"/>
      <use transform="translate(61.181641 0.75)" xlink:href="#DejaVuSans-32"/>
      <use transform="translate(92.96875 0.75)" xlink:href="#DejaVuSans-40"/>
      <use transform="translate(131.982422 0.75)" xlink:href="#DejaVuSans-114"/>
      <use transform="translate(173.095703 0.75)" xlink:href="#DejaVuSans-97"/>
      <use transform="translate(234.375 0.75)" xlink:href="#DejaVuSans-100"/>
      <use transform="translate(297.851562 0.75)" xlink:href="#DejaVuSans-47"/>
      <use transform="translate(331.542969 0.75)" xlink:href="#DejaVuSans-115"/>
      <use transform="translate(383.642578 0.75)" xlink:href="#DejaVuSans-41"/>
     </g>
    </g>
   </g>
   <g id="LineCollection_3">
    <path clip-path="url(#p139973c525)" d="M 206.276563 254.598437 
L 206.276563 201.531771 
" style="fill:none;stroke:#000000;stroke-width:1.5;"/>
   </g>
   <g id="line2d_32">
    <path clip-path="url(#p139973c525)" d="M 77.154688 218.263835 
L 335.140194 218.263838 
L 335.140194 218.263838 
" style="fill:none;stroke:#1f77b4;stroke-linecap:square;stroke-width:1.5;"/>
   </g>
   <g id="line2d_33">
    <path clip-path="url(#p139973c525)" d="M 77.154688 218.263835 
L 335.140194 218.264121 
L 335.140194 218.264121 
" style="fill:none;stroke:#ff0000;stroke-dasharray:5.55,2.4;stroke-dashoffset:0;stroke-width:1.5;"/>
   </g>
   <g id="line2d_34">
    <path clip-path="url(#p139973c525)" d="M 77.154688 218.263835 
L 99.36365 218.359463 
L 99.621894 218.146927 
L 99.880138 218.140518 
L 100.138381 218.420775 
L 100.396625 218.097994 
L 100.654869 218.099269 
L 101.171356 218.651644 
L 101.4296 217.888996 
L 101.687844 218.698987 
L 101.946088 217.867003 
L 102.204331 218.707823 
L 102.462575 217.734358 
L 102.720819 217.730599 
L 102.979063 218.768284 
L 103.49555 216.598185 
L 103.753794 220.642469 
L 104.012038 222.714746 
L 104.270281 213.608551 
L 104.528525 218.263835 
L 241.139469 218.304311 
L 241.397712 218.389351 
L 241.655956 218.103004 
L 241.9142 218.081325 
L 242.172444 218.447591 
L 242.430687 218.10568 
L 242.947175 218.030956 
L 243.205419 218.478753 
L 244.238394 218.582129 
L 244.496637 217.929421 
L 244.754881 217.910444 
L 245.013125 218.615194 
L 245.271369 217.876675 
L 245.529612 217.927776 
L 245.787856 218.609793 
L 246.0461 218.642584 
L 246.304344 217.862433 
L 246.562587 218.702788 
L 246.820831 217.864744 
L 247.079075 218.670068 
L 247.337319 217.834685 
L 247.595562 218.615583 
L 247.853806 217.872284 
L 248.11205 217.897842 
L 248.370294 218.637684 
L 248.628537 217.85846 
L 248.886781 218.661723 
L 249.145025 217.821373 
L 249.403269 218.718577 
L 249.661512 217.869767 
L 249.919756 218.696313 
L 250.178 218.690679 
L 250.436244 217.856991 
L 250.694487 218.761299 
L 250.952731 217.880535 
L 251.210975 218.41993 
L 251.469219 218.64103 
L 251.727462 217.868791 
L 251.985706 218.690687 
L 252.24395 217.774935 
L 252.502194 217.748828 
L 252.760437 218.726773 
L 253.018681 217.829091 
L 253.276925 218.655369 
L 253.535169 218.874662 
L 253.793412 218.778115 
L 254.051656 218.968496 
L 254.3099 217.632205 
L 254.568144 218.98388 
L 255.084631 219.313816 
L 255.342875 219.091571 
L 255.601119 217.377563 
L 255.859362 217.303575 
L 256.117606 217.677125 
L 256.634094 216.966602 
L 256.892337 219.713895 
L 257.150581 217.701242 
L 257.667069 217.160676 
L 257.925312 217.214363 
L 258.183556 216.9243 
L 258.4418 216.007116 
L 258.958287 203.943892 
L 259.216531 212.227266 
L 259.474775 214.287542 
L 259.733019 224.616658 
L 259.991262 252.186316 
L 260.249506 218.263835 
L 335.140194 218.263835 
L 335.140194 218.263835 
" style="fill:none;stroke:#008000;stroke-dasharray:1.5,2.475;stroke-dashoffset:0;stroke-width:1.5;"/>
   </g>
   <g id="patch_13">
    <path d="M 77.154688 254.598437 
L 77.154688 201.531771 
" style="fill:none;stroke:#000000;stroke-linecap:square;stroke-linejoin:miter;stroke-width:0.8;"/>
   </g>
   <g id="patch_14">
    <path d="M 335.398438 254.598437 
L 335.398438 201.531771 
" style="fill:none;stroke:#000000;stroke-linecap:square;stroke-linejoin:miter;stroke-width:0.8;"/>
   </g>
   <g id="patch_15">
    <path d="M 77.154688 254.598437 
L 335.398438 254.598437 
" style="fill:none;stroke:#000000;stroke-linecap:square;stroke-linejoin:miter;stroke-width:0.8;"/>
   </g>
   <g id="patch_16">
    <path d="M 77.154688 201.531771 
L 335.398438 201.531771 
" style="fill:none;stroke:#000000;stroke-linecap:square;stroke-linejoin:miter;stroke-width:0.8;"/>
   </g>
  </g>
  <g id="axes_4">
   <g id="patch_17">
    <path d="M 77.154688 346.465104 
L 335.398438 346.465104 
L 335.398438 293.398438 
L 77.154688 293.398438 
z
" style="fill:#ffffff;"/>
   </g>
   <g id="matplotlib.axis_7">
    <g id="xtick_19">
     <g id="line2d_35">
      <g>
       <use style="stroke:#000000;stroke-width:0.8;" x="77.154688" xlink:href="#m0a04684ab3" y="346.465104"/>
      </g>
     </g>
     <g id="text_31">
      <!-- 0 -->
      <g transform="translate(73.973438 361.063542)scale(0.1 -0.1)">
       <use xlink:href="#DejaVuSans-48"/>
      </g>
     </g>
    </g>
    <g id="xtick_20">
     <g id="line2d_36">
      <g>
       <use style="stroke:#000000;stroke-width:0.8;" x="128.803438" xlink:href="#m0a04684ab3" y="346.465104"/>
      </g>
     </g>
     <g id="text_32">
      <!-- 2 -->
      <g transform="translate(125.622187 361.063542)scale(0.1 -0.1)">
       <use xlink:href="#DejaVuSans-50"/>
      </g>
     </g>
    </g>
    <g id="xtick_21">
     <g id="line2d_37">
      <g>
       <use style="stroke:#000000;stroke-width:0.8;" x="180.452188" xlink:href="#m0a04684ab3" y="346.465104"/>
      </g>
     </g>
     <g id="text_33">
      <!-- 4 -->
      <g transform="translate(177.270938 361.063542)scale(0.1 -0.1)">
       <use xlink:href="#DejaVuSans-52"/>
      </g>
     </g>
    </g>
    <g id="xtick_22">
     <g id="line2d_38">
      <g>
       <use style="stroke:#000000;stroke-width:0.8;" x="232.100937" xlink:href="#m0a04684ab3" y="346.465104"/>
      </g>
     </g>
     <g id="text_34">
      <!-- 6 -->
      <g transform="translate(228.919687 361.063542)scale(0.1 -0.1)">
       <use xlink:href="#DejaVuSans-54"/>
      </g>
     </g>
    </g>
    <g id="xtick_23">
     <g id="line2d_39">
      <g>
       <use style="stroke:#000000;stroke-width:0.8;" x="283.749687" xlink:href="#m0a04684ab3" y="346.465104"/>
      </g>
     </g>
     <g id="text_35">
      <!-- 8 -->
      <g transform="translate(280.568438 361.063542)scale(0.1 -0.1)">
       <use xlink:href="#DejaVuSans-56"/>
      </g>
     </g>
    </g>
    <g id="xtick_24">
     <g id="line2d_40">
      <g>
       <use style="stroke:#000000;stroke-width:0.8;" x="335.398438" xlink:href="#m0a04684ab3" y="346.465104"/>
      </g>
     </g>
     <g id="text_36">
      <!-- 10 -->
      <g transform="translate(329.035937 361.063542)scale(0.1 -0.1)">
       <use xlink:href="#DejaVuSans-49"/>
       <use x="63.623047" xlink:href="#DejaVuSans-48"/>
      </g>
     </g>
    </g>
   </g>
   <g id="matplotlib.axis_8">
    <g id="ytick_8">
     <g id="line2d_41">
      <g>
       <use style="stroke:#000000;stroke-width:0.8;" x="77.154688" xlink:href="#m21c3c7b068" y="343.481789"/>
      </g>
     </g>
     <g id="text_37">
      <!-- 0 -->
      <g transform="translate(63.792188 347.281008)scale(0.1 -0.1)">
       <use xlink:href="#DejaVuSans-48"/>
      </g>
     </g>
    </g>
    <g id="ytick_9">
     <g id="line2d_42">
      <g>
       <use style="stroke:#000000;stroke-width:0.8;" x="77.154688" xlink:href="#m21c3c7b068" y="294.499774"/>
      </g>
     </g>
     <g id="text_38">
      <!-- 200000 -->
      <g transform="translate(31.979688 298.298993)scale(0.1 -0.1)">
       <use xlink:href="#DejaVuSans-50"/>
       <use x="63.623047" xlink:href="#DejaVuSans-48"/>
       <use x="127.246094" xlink:href="#DejaVuSans-48"/>
       <use x="190.869141" xlink:href="#DejaVuSans-48"/>
       <use x="254.492188" xlink:href="#DejaVuSans-48"/>
       <use x="318.115234" xlink:href="#DejaVuSans-48"/>
      </g>
     </g>
    </g>
    <g id="text_39">
     <!-- $\dot{\phi}$ (rad/s) -->
     <g transform="translate(25.879688 341.331771)rotate(-90)scale(0.1 -0.1)">
      <use transform="translate(66.085449 33.015625)" xlink:href="#DejaVuSans-775"/>
      <use transform="translate(0 0.53125)" xlink:href="#DejaVuSans-Oblique-981"/>
      <use transform="translate(65.966797 0.53125)" xlink:href="#DejaVuSans-32"/>
      <use transform="translate(97.753906 0.53125)" xlink:href="#DejaVuSans-40"/>
      <use transform="translate(136.767578 0.53125)" xlink:href="#DejaVuSans-114"/>
      <use transform="translate(177.880859 0.53125)" xlink:href="#DejaVuSans-97"/>
      <use transform="translate(239.160156 0.53125)" xlink:href="#DejaVuSans-100"/>
      <use transform="translate(302.636719 0.53125)" xlink:href="#DejaVuSans-47"/>
      <use transform="translate(336.328125 0.53125)" xlink:href="#DejaVuSans-115"/>
      <use transform="translate(388.427734 0.53125)" xlink:href="#DejaVuSans-41"/>
     </g>
    </g>
   </g>
   <g id="LineCollection_4">
    <path clip-path="url(#ped63b5003c)" d="M 206.276563 346.465104 
L 206.276563 293.398438 
" style="fill:none;stroke:#000000;stroke-width:1.5;"/>
   </g>
   <g id="line2d_43">
    <path clip-path="url(#ped63b5003c)" d="M 77.154688 343.481019 
L 335.140194 343.481202 
L 335.140194 343.481202 
" style="fill:none;stroke:#1f77b4;stroke-linecap:square;stroke-width:1.5;"/>
   </g>
   <g id="line2d_44">
    <path clip-path="url(#ped63b5003c)" d="M 77.154688 343.481019 
L 335.140194 343.48066 
L 335.140194 343.48066 
" style="fill:none;stroke:#ff0000;stroke-dasharray:5.55,2.4;stroke-dashoffset:0;stroke-width:1.5;"/>
   </g>
   <g id="line2d_45">
    <path clip-path="url(#ped63b5003c)" d="M 77.154688 343.481019 
L 97.555944 343.457139 
L 97.814188 343.204917 
L 98.072431 343.437582 
L 98.330675 343.457716 
L 98.588919 342.975022 
L 98.847163 343.396885 
L 99.105406 341.803444 
L 99.36365 343.279586 
L 99.621894 343.303713 
L 99.880138 342.352683 
L 100.138381 343.201725 
L 100.396625 343.277812 
L 100.654869 342.440581 
L 100.913113 343.39479 
L 102.462575 343.414666 
L 102.720819 340.575668 
L 102.979063 342.065399 
L 103.237306 342.404665 
L 103.49555 331.894952 
L 103.753794 342.864047 
L 104.012038 342.292997 
L 104.270281 340.535282 
L 104.528525 343.481789 
L 240.622981 343.574822 
L 240.881225 343.789771 
L 241.139469 343.459629 
L 241.397712 343.510306 
L 241.655956 343.835362 
L 241.9142 343.526107 
L 242.172444 344.052983 
L 242.430687 342.545801 
L 242.688931 343.526896 
L 242.947175 343.522633 
L 243.205419 343.755574 
L 243.463662 343.516648 
L 243.721906 343.490226 
L 243.98015 343.658783 
L 244.238394 343.396214 
L 244.754881 343.468757 
L 246.0461 343.303891 
L 246.304344 343.011475 
L 246.562587 343.463453 
L 247.079075 343.28103 
L 247.853806 343.342485 
L 248.370294 341.921947 
L 248.628537 343.284711 
L 249.145025 343.438014 
L 249.403269 342.465842 
L 249.919756 343.443631 
L 250.178 341.019436 
L 250.436244 342.766549 
L 250.694487 342.104182 
L 250.952731 343.400016 
L 251.210975 341.916043 
L 251.469219 341.466777 
L 251.727462 343.408479 
L 251.985706 343.383938 
L 252.24395 341.34773 
L 252.502194 342.809881 
L 252.760437 342.256279 
L 253.018681 343.225106 
L 253.535169 340.80288 
L 253.793412 343.399958 
L 254.051656 343.401772 
L 254.568144 342.876565 
L 254.826387 337.131716 
L 255.084631 341.561351 
L 255.342875 340.650794 
L 255.601119 343.287753 
L 255.859362 340.950204 
L 256.117606 343.209568 
L 256.37585 343.171084 
L 256.634094 339.903679 
L 256.892337 340.993188 
L 257.150581 335.263007 
L 257.408825 343.419418 
L 257.667069 342.612022 
L 257.925312 343.355267 
L 258.183556 343.332998 
L 258.4418 342.13557 
L 258.700044 343.305273 
L 258.958287 295.810559 
L 259.216531 341.626708 
L 259.474775 342.600473 
L 259.991262 301.025361 
L 260.249506 343.481789 
L 335.140194 343.481789 
L 335.140194 343.481789 
" style="fill:none;stroke:#008000;stroke-dasharray:1.5,2.475;stroke-dashoffset:0;stroke-width:1.5;"/>
   </g>
   <g id="patch_18">
    <path d="M 77.154688 346.465104 
L 77.154688 293.398437 
" style="fill:none;stroke:#000000;stroke-linecap:square;stroke-linejoin:miter;stroke-width:0.8;"/>
   </g>
   <g id="patch_19">
    <path d="M 335.398438 346.465104 
L 335.398438 293.398437 
" style="fill:none;stroke:#000000;stroke-linecap:square;stroke-linejoin:miter;stroke-width:0.8;"/>
   </g>
   <g id="patch_20">
    <path d="M 77.154688 346.465104 
L 335.398438 346.465104 
" style="fill:none;stroke:#000000;stroke-linecap:square;stroke-linejoin:miter;stroke-width:0.8;"/>
   </g>
   <g id="patch_21">
    <path d="M 77.154688 293.398438 
L 335.398438 293.398438 
" style="fill:none;stroke:#000000;stroke-linecap:square;stroke-linejoin:miter;stroke-width:0.8;"/>
   </g>
  </g>
  <g id="axes_5">
   <g id="patch_22">
    <path d="M 77.154688 438.331771 
L 335.398438 438.331771 
L 335.398438 385.265104 
L 77.154688 385.265104 
z
" style="fill:#ffffff;"/>
   </g>
   <g id="matplotlib.axis_9">
    <g id="xtick_25">
     <g id="line2d_46">
      <g>
       <use style="stroke:#000000;stroke-width:0.8;" x="77.154688" xlink:href="#m0a04684ab3" y="438.331771"/>
      </g>
     </g>
     <g id="text_40">
      <!-- 0 -->
      <g transform="translate(73.973438 452.930208)scale(0.1 -0.1)">
       <use xlink:href="#DejaVuSans-48"/>
      </g>
     </g>
    </g>
    <g id="xtick_26">
     <g id="line2d_47">
      <g>
       <use style="stroke:#000000;stroke-width:0.8;" x="128.803438" xlink:href="#m0a04684ab3" y="438.331771"/>
      </g>
     </g>
     <g id="text_41">
      <!-- 2 -->
      <g transform="translate(125.622187 452.930208)scale(0.1 -0.1)">
       <use xlink:href="#DejaVuSans-50"/>
      </g>
     </g>
    </g>
    <g id="xtick_27">
     <g id="line2d_48">
      <g>
       <use style="stroke:#000000;stroke-width:0.8;" x="180.452188" xlink:href="#m0a04684ab3" y="438.331771"/>
      </g>
     </g>
     <g id="text_42">
      <!-- 4 -->
      <g transform="translate(177.270938 452.930208)scale(0.1 -0.1)">
       <use xlink:href="#DejaVuSans-52"/>
      </g>
     </g>
    </g>
    <g id="xtick_28">
     <g id="line2d_49">
      <g>
       <use style="stroke:#000000;stroke-width:0.8;" x="232.100937" xlink:href="#m0a04684ab3" y="438.331771"/>
      </g>
     </g>
     <g id="text_43">
      <!-- 6 -->
      <g transform="translate(228.919687 452.930208)scale(0.1 -0.1)">
       <use xlink:href="#DejaVuSans-54"/>
      </g>
     </g>
    </g>
    <g id="xtick_29">
     <g id="line2d_50">
      <g>
       <use style="stroke:#000000;stroke-width:0.8;" x="283.749687" xlink:href="#m0a04684ab3" y="438.331771"/>
      </g>
     </g>
     <g id="text_44">
      <!-- 8 -->
      <g transform="translate(280.568438 452.930208)scale(0.1 -0.1)">
       <use xlink:href="#DejaVuSans-56"/>
      </g>
     </g>
    </g>
    <g id="xtick_30">
     <g id="line2d_51">
      <g>
       <use style="stroke:#000000;stroke-width:0.8;" x="335.398438" xlink:href="#m0a04684ab3" y="438.331771"/>
      </g>
     </g>
     <g id="text_45">
      <!-- 10 -->
      <g transform="translate(329.035937 452.930208)scale(0.1 -0.1)">
       <use xlink:href="#DejaVuSans-49"/>
       <use x="63.623047" xlink:href="#DejaVuSans-48"/>
      </g>
     </g>
    </g>
   </g>
   <g id="matplotlib.axis_10">
    <g id="ytick_10">
     <g id="line2d_52">
      <g>
       <use style="stroke:#000000;stroke-width:0.8;" x="77.154688" xlink:href="#m21c3c7b068" y="414.746586"/>
      </g>
     </g>
     <g id="text_46">
      <!-- 1 -->
      <g transform="translate(63.792188 418.545804)scale(0.1 -0.1)">
       <use xlink:href="#DejaVuSans-49"/>
      </g>
     </g>
    </g>
    <g id="ytick_11">
     <g id="line2d_53">
      <g>
       <use style="stroke:#000000;stroke-width:0.8;" x="77.154688" xlink:href="#m21c3c7b068" y="385.265104"/>
      </g>
     </g>
     <g id="text_47">
      <!-- 2 -->
      <g transform="translate(63.792188 389.064323)scale(0.1 -0.1)">
       <use xlink:href="#DejaVuSans-50"/>
      </g>
     </g>
    </g>
    <g id="text_48">
     <!-- $\theta$ (rad) -->
     <g transform="translate(57.7125 428.648437)rotate(-90)scale(0.1 -0.1)">
      <use transform="translate(0 0.234375)" xlink:href="#DejaVuSans-Oblique-952"/>
      <use transform="translate(61.181641 0.234375)" xlink:href="#DejaVuSans-32"/>
      <use transform="translate(92.96875 0.234375)" xlink:href="#DejaVuSans-40"/>
      <use transform="translate(131.982422 0.234375)" xlink:href="#DejaVuSans-114"/>
      <use transform="translate(173.095703 0.234375)" xlink:href="#DejaVuSans-97"/>
      <use transform="translate(234.375 0.234375)" xlink:href="#DejaVuSans-100"/>
      <use transform="translate(297.851562 0.234375)" xlink:href="#DejaVuSans-41"/>
     </g>
    </g>
   </g>
   <g id="LineCollection_5">
    <path clip-path="url(#p944d38c7b4)" d="M 206.276563 438.331771 
L 206.276563 385.265104 
" style="fill:none;stroke:#000000;stroke-width:1.5;"/>
   </g>
   <g id="line2d_54">
    <path clip-path="url(#p944d38c7b4)" d="M 77.154688 398.639876 
L 77.412931 399.868588 
L 77.671175 395.942292 
L 77.929419 398.867889 
L 78.187663 395.366952 
L 78.445906 396.389026 
L 78.70415 395.979012 
L 79.220638 399.211325 
L 79.478881 402.770102 
L 79.737125 401.581196 
L 79.995369 403.532262 
L 80.253613 398.700223 
L 80.511856 404.041346 
L 80.7701 403.538689 
L 81.028344 405.561606 
L 81.286588 401.766422 
L 81.544831 403.214401 
L 81.803075 405.763867 
L 82.061319 402.415751 
L 82.577806 405.14289 
L 82.83605 405.848995 
L 83.094294 405.892297 
L 83.352538 403.932294 
L 83.610781 408.748013 
L 83.869025 407.343414 
L 84.127269 410.199011 
L 84.385513 410.182159 
L 84.643756 409.647076 
L 84.902 410.218555 
L 85.160244 411.088406 
L 85.418488 408.938096 
L 85.934975 414.704268 
L 86.193219 410.531156 
L 86.451463 414.067106 
L 86.709706 415.899826 
L 86.96795 416.028875 
L 87.226194 418.474047 
L 87.484438 419.703544 
L 87.742681 419.036089 
L 88.000925 421.039199 
L 88.259169 419.746165 
L 88.517413 423.448022 
L 88.775656 419.14297 
L 89.0339 421.845128 
L 89.292144 423.333287 
L 89.550388 421.737539 
L 89.808631 421.286979 
L 90.066875 423.51309 
L 90.325119 423.118119 
L 90.583363 424.666186 
L 90.841606 423.360325 
L 91.09985 423.245314 
L 91.358094 426.104154 
L 91.616338 421.846086 
L 91.874581 420.571999 
L 92.132825 421.408063 
L 92.391069 421.441486 
L 92.649313 422.379365 
L 92.907556 422.498743 
L 93.1658 423.910597 
L 93.424044 423.591048 
L 93.682288 421.562993 
L 93.940531 422.791959 
L 94.198775 421.114411 
L 94.457019 420.425355 
L 94.715263 419.403549 
L 94.973506 420.104065 
L 95.23175 414.714198 
L 95.489994 417.73651 
L 96.006481 416.299314 
L 96.264725 416.964053 
L 96.522969 411.987265 
L 97.039456 416.416898 
L 97.2977 411.897333 
L 97.814188 411.292377 
L 98.072431 408.087182 
L 98.330675 410.596419 
L 98.588919 409.552675 
L 98.847163 407.897677 
L 99.105406 410.776471 
L 99.36365 404.932934 
L 99.621894 409.9526 
L 99.880138 408.685395 
L 100.396625 402.80243 
L 100.654869 401.27164 
L 100.913113 406.023808 
L 101.171356 398.245983 
L 101.4296 406.438177 
L 101.687844 401.761321 
L 101.946088 403.329703 
L 102.462575 400.374045 
L 102.720819 400.694888 
L 102.979063 402.066314 
L 103.237306 400.321735 
L 103.49555 400.51596 
L 103.753794 399.912782 
L 104.012038 399.812426 
L 104.270281 398.011384 
L 104.528525 399.725839 
L 104.786769 400.018747 
L 105.045013 398.291358 
L 105.303256 399.438696 
L 105.819744 396.851182 
L 106.077988 397.53133 
L 106.336231 400.140921 
L 106.594475 399.783753 
L 106.852719 398.641624 
L 107.110962 399.592815 
L 107.369206 399.625492 
L 107.62745 396.879896 
L 107.885694 398.609203 
L 108.143938 397.661067 
L 108.402181 400.21243 
L 108.660425 404.931923 
L 108.918669 399.739127 
L 109.176913 401.378968 
L 109.435156 399.047472 
L 109.6934 401.354882 
L 109.951644 405.474837 
L 110.209888 404.428047 
L 110.468131 401.305182 
L 110.726375 401.540389 
L 110.984619 405.302501 
L 111.242863 404.820213 
L 111.501106 407.14867 
L 111.75935 405.504791 
L 112.017594 409.041751 
L 112.275838 405.314899 
L 113.308813 408.876479 
L 113.567056 413.824672 
L 113.8253 409.699138 
L 114.341788 412.845977 
L 114.600031 412.036289 
L 114.858275 413.385311 
L 115.116519 417.415142 
L 115.374763 415.785782 
L 115.633006 415.991704 
L 115.89125 415.825744 
L 116.149494 416.556794 
L 116.407738 416.546952 
L 116.665981 420.983151 
L 116.924225 418.932306 
L 117.440713 420.821923 
L 117.698956 422.951135 
L 117.9572 420.789972 
L 118.473688 423.57326 
L 118.731931 423.029379 
L 118.990175 426.373367 
L 119.248419 421.700257 
L 119.506663 423.813594 
L 119.764906 420.792445 
L 120.02315 426.344963 
L 120.539637 424.226947 
L 120.797881 424.110316 
L 121.056125 426.334336 
L 121.572613 422.463915 
L 121.830856 423.116318 
L 122.0891 421.385861 
L 122.347344 421.446572 
L 122.605588 422.319378 
L 122.863831 420.643437 
L 123.122075 417.413309 
L 123.380319 423.379405 
L 123.896806 418.974345 
L 124.15505 418.680229 
L 124.413294 417.449979 
L 124.671538 414.670689 
L 124.929781 414.052237 
L 125.188025 410.841059 
L 125.446269 413.402054 
L 125.704513 413.849276 
L 125.962756 411.84086 
L 126.221 411.226182 
L 126.479244 410.291319 
L 126.737488 410.231357 
L 126.995731 407.840787 
L 127.253975 408.66936 
L 127.512219 406.001967 
L 128.028706 406.548753 
L 128.28695 406.432637 
L 128.545194 405.158043 
L 128.803438 406.816869 
L 129.319925 401.682364 
L 129.578169 400.37827 
L 129.836412 403.641588 
L 130.094656 403.178552 
L 130.3529 401.428017 
L 130.869388 403.460571 
L 131.127631 400.583025 
L 131.385875 400.215636 
L 131.644119 396.570021 
L 131.902363 401.301931 
L 132.160606 401.388773 
L 132.41885 399.217739 
L 132.677094 400.453648 
L 132.935338 397.568476 
L 133.193581 400.747506 
L 133.451825 397.494888 
L 133.710069 399.732548 
L 133.968313 398.678662 
L 134.226556 399.15321 
L 134.4848 399.938712 
L 134.743044 397.738309 
L 135.001288 399.549255 
L 135.259531 397.073808 
L 135.517775 398.2934 
L 135.776019 398.618933 
L 136.034263 399.892399 
L 136.55075 400.693495 
L 136.808994 399.428939 
L 137.067238 399.320425 
L 137.325481 397.755623 
L 137.583725 403.673006 
L 137.841969 399.40204 
L 138.6167 404.703738 
L 138.874944 403.179404 
L 139.133188 403.175299 
L 139.391431 401.535742 
L 139.649675 408.554583 
L 139.907919 408.414247 
L 140.166163 404.871937 
L 140.68265 407.393708 
L 140.940894 406.216778 
L 141.199138 408.680179 
L 141.457381 407.110773 
L 141.715625 409.277773 
L 141.973869 407.988615 
L 142.232113 411.52797 
L 142.490356 412.668748 
L 142.7486 415.244241 
L 143.006844 410.188628 
L 143.265087 415.596458 
L 143.523331 413.164882 
L 143.781575 416.22896 
L 144.298063 415.924979 
L 144.556306 415.450139 
L 144.81455 418.70634 
L 145.072794 419.949659 
L 145.331038 416.478992 
L 145.589281 417.508596 
L 146.105769 422.553834 
L 146.364013 422.898116 
L 146.622256 419.846106 
L 146.8805 420.831522 
L 147.138744 420.733692 
L 147.396988 422.029954 
L 147.913475 427.144911 
L 148.171719 425.937433 
L 148.429963 425.940502 
L 148.688206 421.051935 
L 148.94645 422.957985 
L 149.462938 422.036556 
L 149.721181 423.247508 
L 149.979425 420.399868 
L 150.237669 424.406331 
L 150.495913 423.978162 
L 151.0124 419.160706 
L 151.270644 420.860564 
L 151.528887 417.417382 
L 151.787131 421.99162 
L 152.303619 417.242835 
L 152.820106 419.95944 
L 153.07835 414.647102 
L 153.594838 411.000141 
L 153.853081 414.501097 
L 154.111325 414.115485 
L 154.627813 411.592273 
L 155.1443 412.68992 
L 155.402544 412.20237 
L 155.919031 407.227275 
L 156.177275 404.02645 
L 156.693762 408.258985 
L 156.952006 407.616465 
L 157.21025 404.94269 
L 157.468494 404.099381 
L 157.726738 405.029437 
L 158.243225 403.538648 
L 158.501469 401.619595 
L 158.759713 401.587607 
L 159.017956 400.815286 
L 159.2762 403.368118 
L 159.534444 400.727874 
L 159.792687 403.349513 
L 160.309175 398.032294 
L 160.567419 400.422867 
L 160.825663 398.66432 
L 161.34215 399.368744 
L 161.600394 396.666456 
L 161.858638 401.734967 
L 162.116881 402.221195 
L 162.375125 398.828429 
L 162.633369 397.596244 
L 162.891613 398.592292 
L 163.149856 399.129863 
L 163.4081 394.246687 
L 163.666344 395.848092 
L 164.182831 401.41812 
L 164.441075 400.494385 
L 164.957562 399.776461 
L 165.215806 400.822565 
L 165.47405 399.947138 
L 165.732294 398.002158 
L 165.990538 397.658596 
L 166.248781 401.60535 
L 166.507025 403.647387 
L 166.765269 401.699339 
L 167.023513 401.525792 
L 167.281756 405.79684 
L 167.54 401.857648 
L 167.798244 402.059504 
L 168.056488 401.230617 
L 168.314731 403.186709 
L 168.572975 401.866701 
L 169.089463 405.872531 
L 169.60595 407.012027 
L 169.864194 409.019468 
L 170.380681 409.289225 
L 170.638925 411.542281 
L 170.897169 409.627266 
L 171.155413 414.217402 
L 171.413656 413.255975 
L 171.6719 414.586997 
L 171.930144 412.938646 
L 172.188388 417.027505 
L 172.446631 417.306179 
L 172.704875 412.801751 
L 172.963119 418.329438 
L 173.221362 416.034498 
L 173.479606 419.073808 
L 173.73785 419.523564 
L 173.996094 418.345433 
L 174.254338 420.248917 
L 174.512581 423.051786 
L 174.770825 419.045255 
L 175.029069 422.266583 
L 175.287313 422.220712 
L 175.545556 424.693337 
L 175.8038 423.804299 
L 176.062044 424.550234 
L 176.320288 422.762761 
L 176.578531 424.890417 
L 176.836775 423.967157 
L 177.095019 423.693559 
L 177.353262 423.034667 
L 177.611506 423.873953 
L 177.86975 421.349403 
L 178.127994 422.368971 
L 178.386237 422.865948 
L 178.644481 422.28642 
L 178.902725 423.169774 
L 179.419213 420.208812 
L 179.677456 421.990506 
L 179.9357 420.482839 
L 180.193944 417.958299 
L 180.452188 418.817499 
L 180.710431 421.281001 
L 180.968675 420.670134 
L 181.226919 415.248083 
L 181.485163 416.551961 
L 181.743406 414.62178 
L 182.00165 415.110694 
L 182.259894 413.193754 
L 182.518138 415.526011 
L 182.776381 409.571667 
L 183.034625 412.488682 
L 183.292869 410.339145 
L 183.551113 413.271913 
L 183.809356 408.878745 
L 184.0676 413.300665 
L 184.325844 407.317749 
L 184.584088 406.15624 
L 184.842331 407.935564 
L 185.100575 403.134196 
L 185.358819 406.023538 
L 185.617063 405.707746 
L 186.13355 404.651332 
L 186.391794 402.830496 
L 186.650037 402.877827 
L 186.908281 401.41688 
L 187.166525 404.680981 
L 187.424769 399.985031 
L 187.683013 399.920028 
L 187.941256 402.336357 
L 188.1995 400.077879 
L 188.457744 402.917935 
L 188.715988 397.207813 
L 188.974231 396.124005 
L 189.232475 397.049748 
L 189.490719 401.235077 
L 189.748963 400.408138 
L 190.007206 398.054562 
L 190.26545 399.561059 
L 190.523694 397.348241 
L 190.781938 400.354842 
L 191.040181 399.364417 
L 191.298425 399.003319 
L 191.556669 398.103532 
L 191.814913 395.228665 
L 192.073156 400.42941 
L 192.589644 397.151994 
L 192.847888 401.535668 
L 193.106131 401.686296 
L 193.364375 398.826581 
L 193.880863 401.901883 
L 194.139106 400.682537 
L 194.39735 398.099473 
L 194.655594 400.487975 
L 194.913837 401.191174 
L 195.172081 402.642995 
L 195.430325 401.119202 
L 195.688569 404.734203 
L 195.946813 401.609949 
L 196.205056 405.831606 
L 196.4633 405.690079 
L 196.721544 403.825103 
L 196.979787 404.658133 
L 197.238031 406.669395 
L 197.496275 406.947206 
L 198.012763 408.718772 
L 198.271006 404.926724 
L 198.52925 410.21825 
L 198.787494 409.581251 
L 199.045738 411.249084 
L 199.303981 409.512152 
L 199.562225 412.549871 
L 199.820469 411.489069 
L 200.078712 414.116885 
L 200.336956 410.35051 
L 200.5952 414.031998 
L 200.853444 414.064838 
L 201.111688 417.069182 
L 201.369931 416.091335 
L 201.628175 418.833361 
L 201.886419 418.241037 
L 202.144663 423.159631 
L 202.66115 422.758922 
L 202.919394 423.123746 
L 203.177638 420.780691 
L 203.435881 421.926933 
L 203.694125 419.654097 
L 203.952369 419.067303 
L 204.210613 423.674937 
L 204.468856 419.684542 
L 204.7271 424.615788 
L 204.985344 426.062517 
L 205.243587 422.736728 
L 205.501831 427.43397 
L 205.760075 424.053803 
L 206.018319 427.29932 
L 206.534806 427.222006 
L 207.051294 426.882297 
L 207.567781 426.313291 
L 208.342512 425.093873 
L 209.375487 422.966699 
L 211.183194 418.58454 
L 213.507387 413.004353 
L 215.05685 409.847479 
L 216.348069 407.725514 
L 217.381044 406.411466 
L 218.414019 405.463199 
L 219.18875 404.999475 
L 219.963481 404.751423 
L 220.738212 404.722311 
L 221.512944 404.913287 
L 222.287675 405.323182 
L 223.062406 405.948515 
L 224.095381 407.107066 
L 225.128356 408.617903 
L 226.419575 410.958897 
L 227.969037 414.325412 
L 232.875669 425.613802 
L 233.6504 426.653074 
L 234.166887 427.077565 
L 234.683375 427.25829 
L 235.199862 427.186853 
L 235.71635 426.869454 
L 236.232837 426.32232 
L 237.007569 425.13378 
L 238.040544 423.040335 
L 239.84825 418.705993 
L 242.430687 412.602306 
L 243.98015 409.561585 
L 245.271369 407.549658 
L 246.304344 406.325896 
L 247.337319 405.468614 
L 248.11205 405.074794 
L 248.886781 404.898387 
L 249.661512 404.940469 
L 250.436244 405.199906 
L 251.210975 405.672204 
L 252.24395 406.626978 
L 253.276925 407.947037 
L 254.3099 409.611799 
L 255.601119 412.121842 
L 257.408825 416.243375 
L 260.765994 424.19221 
L 261.798969 425.989437 
L 262.5737 426.86666 
L 263.090187 427.170471 
L 263.606675 427.226386 
L 264.123162 427.032405 
L 264.63965 426.601692 
L 265.414381 425.561125 
L 266.447356 423.60743 
L 267.996819 419.99983 
L 271.095744 412.628699 
L 272.645206 409.586642 
L 273.936425 407.571307 
L 274.9694 406.343954 
L 276.002375 405.482489 
L 276.777106 405.085216 
L 277.551837 404.905085 
L 278.326569 404.943124 
L 279.1013 405.198103 
L 279.876031 405.665255 
L 280.909006 406.614405 
L 281.941981 407.929023 
L 282.974956 409.587618 
L 284.266175 412.088711 
L 285.815637 415.579246 
L 289.689294 424.636452 
L 290.464025 425.931677 
L 291.238756 426.814673 
L 291.755244 427.120775 
L 292.271731 427.18107 
L 292.788219 426.994665 
L 293.304706 426.573862 
L 294.079437 425.549777 
L 295.112412 423.619433 
L 296.661875 420.058969 
L 299.7608 412.788317 
L 301.310262 409.78861 
L 302.601481 407.805549 
L 303.634456 406.600098 
L 304.667431 405.756928 
L 305.442162 405.37097 
L 306.216894 405.200251 
L 306.991625 405.246105 
L 307.766356 405.507757 
L 308.541087 405.982323 
L 309.574062 406.933921 
L 310.607037 408.24025 
L 311.640012 409.887541 
L 312.931231 412.374756 
L 314.738937 416.455392 
L 318.096106 424.254173 
L 319.129081 425.999446 
L 319.903812 426.839145 
L 320.4203 427.119666 
L 320.936787 427.15879 
L 321.453275 426.955875 
L 321.969762 426.521648 
L 322.744494 425.488288 
L 323.777469 423.557448 
L 325.326931 420.018362 
L 328.425856 412.817056 
L 329.975319 409.85631 
L 331.266537 407.903577 
L 332.299512 406.722008 
L 333.332487 405.901847 
L 334.107219 405.532064 
L 334.88195 405.375983 
L 335.140194 405.371616 
L 335.140194 405.371616 
" style="fill:none;stroke:#1f77b4;stroke-linecap:square;stroke-width:1.5;"/>
   </g>
   <g id="line2d_55">
    <path clip-path="url(#p944d38c7b4)" d="M 77.154688 398.639876 
L 78.187663 398.774653 
L 79.220638 399.180016 
L 80.253613 399.872213 
L 81.286588 400.875258 
L 82.319563 402.216614 
L 83.352538 403.927189 
L 84.385513 406.04134 
L 85.676731 409.283208 
L 89.808631 420.481741 
L 90.583363 421.802218 
L 91.358094 422.70584 
L 91.874581 423.067004 
L 92.391069 423.228623 
L 92.907556 423.187211 
L 93.424044 422.943513 
L 93.940531 422.502504 
L 94.715263 421.485363 
L 95.489994 420.064218 
L 96.522969 417.62518 
L 98.072431 413.198014 
L 99.880138 408.059957 
L 101.171356 405.057658 
L 102.204331 403.131764 
L 103.237306 401.600975 
L 104.270281 400.422303 
L 105.303256 399.564018 
L 106.336231 399.001636 
L 107.369206 398.719077 
L 108.402181 398.708664 
L 109.435156 398.962147 
L 110.468131 399.481385 
L 111.501106 400.307154 
L 112.534081 401.474152 
L 113.567056 403.009013 
L 114.600031 404.930306 
L 115.89125 407.890577 
L 117.182469 411.456732 
L 119.764906 418.772133 
L 120.797881 420.964021 
L 121.572613 422.163172 
L 122.347344 422.939286 
L 122.863831 423.213307 
L 123.380319 423.286831 
L 123.896806 423.156475 
L 124.413294 422.82333 
L 125.188025 421.956783 
L 125.962756 420.676887 
L 126.995731 418.38825 
L 128.28695 414.830449 
L 130.869388 407.464857 
L 132.160606 404.571807 
L 133.193581 402.732028 
L 134.226556 401.278728 
L 135.259531 400.170582 
L 136.292506 399.376572 
L 137.325481 398.873948 
L 138.358456 398.64813 
L 139.391431 398.692818 
L 140.424406 399.009992 
L 141.457381 399.598596 
L 142.490356 400.479096 
L 143.523331 401.700924 
L 144.556306 403.300111 
L 145.589281 405.298737 
L 146.8805 408.369791 
L 148.429963 412.796138 
L 150.237669 417.975196 
L 151.270644 420.3589 
L 152.045375 421.724667 
L 152.820106 422.681076 
L 153.336594 423.078937 
L 153.853081 423.275536 
L 154.369569 423.26714 
L 154.886056 423.054372 
L 155.402544 422.64221 
L 156.177275 421.665352 
L 156.952006 420.27717 
L 157.984981 417.867505 
L 159.534444 413.444311 
L 161.600394 407.576633 
L 162.891613 404.648312 
L 163.924588 402.781467 
L 164.957562 401.304214 
L 165.990538 400.173526 
L 167.023513 399.358522 
L 168.056488 398.835753 
L 169.089463 398.59014 
L 170.122437 398.614978 
L 171.155413 398.907618 
L 172.188388 399.455178 
L 173.221362 400.306294 
L 174.254338 401.508217 
L 175.287313 403.092625 
L 176.320288 405.075626 
L 177.611506 408.114231 
L 178.902725 411.736301 
L 181.226919 418.422369 
L 182.259894 420.725701 
L 183.034625 422.016261 
L 183.809356 422.886813 
L 184.325844 423.223766 
L 184.842331 423.359818 
L 185.358819 423.29061 
L 185.875306 423.016283 
L 186.391794 422.541481 
L 187.166525 421.472519 
L 187.941256 419.998528 
L 188.974231 417.488851 
L 190.523694 412.980428 
L 192.3314 407.812813 
L 193.622619 404.815262 
L 194.655594 402.898788 
L 195.688569 401.376916 
L 196.721544 400.206347 
L 197.754519 399.354256 
L 198.787494 398.796169 
L 199.820469 398.515859 
L 200.853444 398.505446 
L 201.886419 398.765388 
L 202.919394 399.303128 
L 203.952369 400.133295 
L 204.985344 401.27995 
L 206.018319 402.775928 
L 206.276563 402.775928 
L 207.309537 404.661603 
L 208.342512 406.973684 
L 209.633731 410.448171 
L 212.732656 419.23349 
L 213.765631 421.329948 
L 214.540362 422.436412 
L 215.315094 423.11137 
L 215.831581 423.312173 
L 216.348069 423.308195 
L 216.864556 423.09966 
L 217.381044 422.691143 
L 218.155775 421.718728 
L 218.930506 420.334464 
L 219.963481 417.927876 
L 221.2547 414.272814 
L 223.578894 407.609844 
L 224.870112 404.667257 
L 225.903087 402.790644 
L 226.936062 401.304566 
L 227.969037 400.165888 
L 229.002012 399.343454 
L 230.034987 398.813553 
L 231.067962 398.560912 
L 232.100937 398.578698 
L 233.133912 398.860041 
L 234.166887 399.40344 
L 235.199862 400.254195 
L 236.232837 401.450973 
L 237.265812 403.022067 
L 238.298787 404.985397 
L 239.590006 408.00165 
L 240.881225 411.619853 
L 243.205419 418.330817 
L 244.238394 420.66078 
L 245.013125 421.974348 
L 245.787856 422.870544 
L 246.304344 423.224749 
L 246.820831 423.376341 
L 247.337319 423.322464 
L 247.853806 423.064519 
L 248.370294 422.608122 
L 249.145025 421.563822 
L 249.919756 420.112071 
L 250.952731 417.628686 
L 252.502194 413.134871 
L 254.3099 407.942133 
L 255.601119 404.919715 
L 256.634094 402.983149 
L 257.667069 401.443688 
L 258.700044 400.256699 
L 259.733019 399.389848 
L 260.765994 398.818106 
L 261.798969 398.524943 
L 262.831944 398.502332 
L 263.864919 398.742244 
L 264.897894 399.246358 
L 265.930869 400.053369 
L 266.963844 401.197389 
L 267.996819 402.706115 
L 269.029794 404.600834 
L 270.321012 407.53408 
L 271.612231 411.095557 
L 274.194669 418.562881 
L 275.227644 420.853625 
L 276.002375 422.130568 
L 276.777106 422.984561 
L 277.293594 423.309362 
L 277.810081 423.431865 
L 278.326569 423.348335 
L 278.843056 423.059514 
L 279.617787 422.253993 
L 280.392519 421.025287 
L 281.16725 419.404633 
L 282.200225 416.738148 
L 286.332125 405.283417 
L 287.3651 403.265361 
L 288.398075 401.652413 
L 289.43105 400.40026 
L 290.464025 399.473535 
L 291.497 398.845656 
L 292.529975 398.498313 
L 293.56295 398.421637 
L 294.595925 398.614015 
L 295.6289 399.059139 
L 296.661875 399.786912 
L 297.69485 400.848197 
L 298.727825 402.27995 
L 299.7608 404.105219 
L 300.793775 406.333148 
L 302.084994 409.675717 
L 305.700406 419.886487 
L 306.733381 421.838568 
L 307.508112 422.823726 
L 308.0246 423.238131 
L 308.541087 423.450608 
L 309.057575 423.456548 
L 309.574062 423.255724 
L 310.09055 422.852293 
L 310.865281 421.882641 
L 311.640012 420.495717 
L 312.672987 418.075579 
L 313.964206 414.383618 
L 316.2884 407.623748 
L 317.579619 404.633521 
L 318.612594 402.72521 
L 319.645569 401.210962 
L 320.678544 400.046376 
L 321.711519 399.199154 
L 322.744494 398.644625 
L 323.777469 398.366696 
L 324.810444 398.357848 
L 325.843419 398.608586 
L 326.876394 399.126881 
L 327.909369 399.948529 
L 328.942344 401.105353 
L 329.975319 402.62486 
L 331.008294 404.530241 
L 332.041269 406.840371 
L 333.332487 410.314187 
L 335.140194 415.760343 
L 335.140194 415.760343 
" style="fill:none;stroke:#ff0000;stroke-dasharray:5.55,2.4;stroke-dashoffset:0;stroke-width:1.5;"/>
   </g>
   <g id="line2d_56">
    <path clip-path="url(#p944d38c7b4)" d="M 77.154688 398.639876 
L 77.929419 398.738075 
L 78.70415 399.031392 
L 79.478881 399.519167 
L 80.511856 400.481273 
L 81.544831 401.827382 
L 82.577806 403.629885 
L 83.352538 405.469781 
L 84.127269 407.942184 
L 84.902 409.584872 
L 85.418488 410.278172 
L 85.934975 410.606089 
L 86.451463 410.541212 
L 86.96795 410.086754 
L 87.484438 409.27876 
L 88.259169 407.462521 
L 88.775656 405.662516 
L 89.808631 402.253013 
L 91.358094 398.035389 
L 94.715263 389.46424 
L 95.489994 386.584542 
L 96.006481 383.924592 
L 96.522969 379.98822 
L 96.781213 377.040962 
L 97.039456 372.61833 
L 97.2977 364.039874 
L 97.814188 285.483906 
L 98.072431 307.155845 
L 98.330675 391.241322 
L 98.588919 524.581678 
L 99.105406 271.814068 
L 99.36365 515.757857 
L 99.621894 290.488963 
L 99.880138 534.350767 
L 100.138381 332.189135 
L 100.396625 289.678176 
L 100.654869 443.88659 
L 100.913113 472.912929 
L 101.171356 567.558182 
L 101.4296 391.341806 
L 101.687844 402.550651 
L 101.946088 421.104108 
L 102.204331 416.448533 
L 102.462575 304.60543 
L 102.720819 251.648148 
L 102.979063 243.251942 
L 103.237306 358.858955 
L 103.35711 568.754687 
M 104.092979 568.754687 
L 104.256141 -1 
M 104.296062 -1 
L 104.528525 444.228067 
L 209.375487 444.324582 
L 210.408462 444.623032 
L 211.441437 445.173363 
L 212.474412 446.020458 
L 213.507387 447.187017 
L 214.798606 449.078215 
L 216.348069 451.841734 
L 220.479969 459.537384 
L 222.029431 461.80614 
L 223.837137 464.029528 
L 226.419575 467.175239 
L 228.227281 469.786534 
L 231.067962 474.408449 
L 234.683375 480.582541 
L 236.232837 483.743055 
L 237.265812 486.313153 
L 238.298787 489.558576 
L 239.073519 492.818878 
L 239.590006 495.757012 
L 240.106494 499.958072 
L 240.364737 503.035203 
L 240.622981 507.634342 
L 240.881225 517.421088 
L 241.062911 568.754687 
M 241.168843 568.754687 
L 241.397712 400.222129 
L 241.655956 427.084017 
L 241.9142 503.617288 
L 242.172444 433.300221 
L 242.430687 247.389059 
L 242.947175 508.386465 
L 243.205419 546.804583 
L 243.463662 473.157894 
L 243.721906 496.220441 
L 244.11534 568.754687 
M 244.299844 568.754687 
L 244.496637 484.421183 
L 244.754881 319.083128 
L 245.013125 345.806793 
L 245.244131 568.754687 
M 245.293654 568.754687 
L 245.529612 290.422951 
L 245.787856 336.985251 
L 246.0461 555.164082 
L 246.304344 355.64023 
L 246.562587 481.748992 
L 246.820831 329.048757 
L 247.079075 463.086173 
L 247.337319 370.354887 
L 247.595562 378.946779 
L 247.853806 565.634567 
L 248.11205 278.108866 
L 248.370294 444.591648 
L 248.628537 469.256032 
L 248.886781 294.427871 
L 249.145025 491.617533 
L 249.403269 435.283654 
L 249.661512 333.234004 
L 249.919756 494.714087 
L 250.178 248.028536 
L 250.436244 458.76121 
L 250.952731 410.021955 
L 251.210975 242.486153 
L 251.469219 445.794173 
L 251.727462 499.197325 
L 251.985706 301.10947 
L 252.502194 555.469041 
L 252.760437 364.319704 
L 253.018681 377.715662 
L 253.276925 433.330729 
L 253.535169 270.697596 
L 253.793412 313.178728 
L 254.038825 568.754687 
M 254.065291 568.754687 
L 254.3099 329.016425 
L 254.568144 333.59136 
L 254.722357 568.754687 
M 255.049958 568.754687 
L 255.084631 544.151462 
L 255.342875 247.596255 
L 255.601119 322.537489 
L 255.859362 438.637257 
L 256.117606 127.603572 
L 256.37585 513.112987 
L 256.634094 251.051919 
L 257.012012 568.754687 
M 257.271087 568.754687 
L 257.408825 393.90171 
L 257.667069 333.432291 
L 257.925312 389.347128 
L 258.183556 481.912914 
L 258.4418 45.019546 
L 258.608678 568.754687 
M 259.192781 568.754687 
L 259.216531 476.857376 
L 259.339283 568.754687 
M 260.233168 568.754687 
L 260.249506 444.228067 
L 335.140194 444.228067 
L 335.140194 444.228067 
" style="fill:none;stroke:#008000;stroke-dasharray:1.5,2.475;stroke-dashoffset:0;stroke-width:1.5;"/>
   </g>
   <g id="patch_23">
    <path d="M 77.154688 438.331771 
L 77.154688 385.265104 
" style="fill:none;stroke:#000000;stroke-linecap:square;stroke-linejoin:miter;stroke-width:0.8;"/>
   </g>
   <g id="patch_24">
    <path d="M 335.398438 438.331771 
L 335.398438 385.265104 
" style="fill:none;stroke:#000000;stroke-linecap:square;stroke-linejoin:miter;stroke-width:0.8;"/>
   </g>
   <g id="patch_25">
    <path d="M 77.154688 438.331771 
L 335.398438 438.331771 
" style="fill:none;stroke:#000000;stroke-linecap:square;stroke-linejoin:miter;stroke-width:0.8;"/>
   </g>
   <g id="patch_26">
    <path d="M 77.154688 385.265104 
L 335.398438 385.265104 
" style="fill:none;stroke:#000000;stroke-linecap:square;stroke-linejoin:miter;stroke-width:0.8;"/>
   </g>
  </g>
  <g id="axes_6">
   <g id="patch_27">
    <path d="M 77.154688 530.198437 
L 335.398438 530.198437 
L 335.398438 477.131771 
L 77.154688 477.131771 
z
" style="fill:#ffffff;"/>
   </g>
   <g id="matplotlib.axis_11">
    <g id="xtick_31">
     <g id="line2d_57">
      <g>
       <use style="stroke:#000000;stroke-width:0.8;" x="77.154688" xlink:href="#m0a04684ab3" y="530.198437"/>
      </g>
     </g>
     <g id="text_49">
      <!-- 0 -->
      <g transform="translate(73.973438 544.796875)scale(0.1 -0.1)">
       <use xlink:href="#DejaVuSans-48"/>
      </g>
     </g>
    </g>
    <g id="xtick_32">
     <g id="line2d_58">
      <g>
       <use style="stroke:#000000;stroke-width:0.8;" x="128.803438" xlink:href="#m0a04684ab3" y="530.198437"/>
      </g>
     </g>
     <g id="text_50">
      <!-- 2 -->
      <g transform="translate(125.622187 544.796875)scale(0.1 -0.1)">
       <use xlink:href="#DejaVuSans-50"/>
      </g>
     </g>
    </g>
    <g id="xtick_33">
     <g id="line2d_59">
      <g>
       <use style="stroke:#000000;stroke-width:0.8;" x="180.452188" xlink:href="#m0a04684ab3" y="530.198437"/>
      </g>
     </g>
     <g id="text_51">
      <!-- 4 -->
      <g transform="translate(177.270938 544.796875)scale(0.1 -0.1)">
       <use xlink:href="#DejaVuSans-52"/>
      </g>
     </g>
    </g>
    <g id="xtick_34">
     <g id="line2d_60">
      <g>
       <use style="stroke:#000000;stroke-width:0.8;" x="232.100937" xlink:href="#m0a04684ab3" y="530.198437"/>
      </g>
     </g>
     <g id="text_52">
      <!-- 6 -->
      <g transform="translate(228.919687 544.796875)scale(0.1 -0.1)">
       <use xlink:href="#DejaVuSans-54"/>
      </g>
     </g>
    </g>
    <g id="xtick_35">
     <g id="line2d_61">
      <g>
       <use style="stroke:#000000;stroke-width:0.8;" x="283.749687" xlink:href="#m0a04684ab3" y="530.198437"/>
      </g>
     </g>
     <g id="text_53">
      <!-- 8 -->
      <g transform="translate(280.568438 544.796875)scale(0.1 -0.1)">
       <use xlink:href="#DejaVuSans-56"/>
      </g>
     </g>
    </g>
    <g id="xtick_36">
     <g id="line2d_62">
      <g>
       <use style="stroke:#000000;stroke-width:0.8;" x="335.398438" xlink:href="#m0a04684ab3" y="530.198437"/>
      </g>
     </g>
     <g id="text_54">
      <!-- 10 -->
      <g transform="translate(329.035937 544.796875)scale(0.1 -0.1)">
       <use xlink:href="#DejaVuSans-49"/>
       <use x="63.623047" xlink:href="#DejaVuSans-48"/>
      </g>
     </g>
    </g>
    <g id="text_55">
     <!-- t (s) -->
     <g transform="translate(196.221094 558.475)scale(0.1 -0.1)">
      <defs>
       <path d="M 18.3125 70.21875 
L 18.3125 54.6875 
L 36.8125 54.6875 
L 36.8125 47.703125 
L 18.3125 47.703125 
L 18.3125 18.015625 
Q 18.3125 11.328125 20.140625 9.421875 
Q 21.96875 7.515625 27.59375 7.515625 
L 36.8125 7.515625 
L 36.8125 0 
L 27.59375 0 
Q 17.1875 0 13.234375 3.875 
Q 9.28125 7.765625 9.28125 18.015625 
L 9.28125 47.703125 
L 2.6875 47.703125 
L 2.6875 54.6875 
L 9.28125 54.6875 
L 9.28125 70.21875 
z
" id="DejaVuSans-116"/>
      </defs>
      <use xlink:href="#DejaVuSans-116"/>
      <use x="39.208984" xlink:href="#DejaVuSans-32"/>
      <use x="70.996094" xlink:href="#DejaVuSans-40"/>
      <use x="110.009766" xlink:href="#DejaVuSans-115"/>
      <use x="162.109375" xlink:href="#DejaVuSans-41"/>
     </g>
    </g>
   </g>
   <g id="matplotlib.axis_12">
    <g id="ytick_12">
     <g id="line2d_63">
      <g>
       <use style="stroke:#000000;stroke-width:0.8;" x="77.154688" xlink:href="#m21c3c7b068" y="529.987017"/>
      </g>
     </g>
     <g id="text_56">
      <!-- 0 -->
      <g transform="translate(63.792188 533.786235)scale(0.1 -0.1)">
       <use xlink:href="#DejaVuSans-48"/>
      </g>
     </g>
    </g>
    <g id="ytick_13">
     <g id="line2d_64">
      <g>
       <use style="stroke:#000000;stroke-width:0.8;" x="77.154688" xlink:href="#m21c3c7b068" y="477.131771"/>
      </g>
     </g>
     <g id="text_57">
      <!-- 50 -->
      <g transform="translate(57.429688 480.93099)scale(0.1 -0.1)">
       <use xlink:href="#DejaVuSans-53"/>
       <use x="63.623047" xlink:href="#DejaVuSans-48"/>
      </g>
     </g>
    </g>
    <g id="text_58">
     <!-- $\phi$ (rad) -->
     <g transform="translate(51.329688 520.765104)rotate(-90)scale(0.1 -0.1)">
      <use transform="translate(0 0.015625)" xlink:href="#DejaVuSans-Oblique-981"/>
      <use transform="translate(65.966797 0.015625)" xlink:href="#DejaVuSans-32"/>
      <use transform="translate(97.753906 0.015625)" xlink:href="#DejaVuSans-40"/>
      <use transform="translate(136.767578 0.015625)" xlink:href="#DejaVuSans-114"/>
      <use transform="translate(177.880859 0.015625)" xlink:href="#DejaVuSans-97"/>
      <use transform="translate(239.160156 0.015625)" xlink:href="#DejaVuSans-100"/>
      <use transform="translate(302.636719 0.015625)" xlink:href="#DejaVuSans-41"/>
     </g>
    </g>
   </g>
   <g id="LineCollection_6">
    <path clip-path="url(#p91e1724a92)" d="M 206.276563 530.198437 
L 206.276563 477.131771 
" style="fill:none;stroke:#000000;stroke-width:1.5;"/>
   </g>
   <g id="line2d_65">
    <path clip-path="url(#p91e1724a92)" d="M 77.154688 529.986706 
L 77.412931 529.997048 
L 77.671175 529.821537 
L 77.929419 529.890699 
L 78.187663 529.728416 
L 79.995369 529.735704 
L 80.253613 529.517638 
L 80.511856 529.663343 
L 81.544831 529.440367 
L 81.803075 529.480911 
L 82.061319 529.308959 
L 82.83605 529.270114 
L 83.869025 529.092735 
L 84.385513 529.072313 
L 85.418488 528.768974 
L 85.934975 528.838783 
L 86.193219 528.618679 
L 86.709706 528.666093 
L 87.226194 528.607595 
L 88.000925 528.462354 
L 88.259169 528.333987 
L 88.517413 528.383307 
L 88.775656 528.144184 
L 89.292144 528.121339 
L 89.808631 527.871298 
L 90.325119 527.758894 
L 90.841606 527.591183 
L 92.907556 526.945851 
L 93.424044 526.86833 
L 93.940531 526.739402 
L 94.715263 526.495607 
L 94.973506 526.48656 
L 95.23175 526.26201 
L 95.489994 526.341709 
L 96.781213 526.089275 
L 97.039456 526.163533 
L 97.2977 525.98446 
L 99.105406 525.840593 
L 99.36365 525.616873 
L 99.621894 525.7825 
L 100.138381 525.602796 
L 100.654869 525.410434 
L 100.913113 525.564438 
L 101.171356 525.268558 
L 101.4296 525.544657 
L 101.687844 525.358617 
L 101.946088 525.395768 
L 102.720819 525.239214 
L 102.979063 525.265985 
L 103.753794 525.116079 
L 107.369206 524.649542 
L 107.62745 524.510949 
L 108.660425 524.629032 
L 108.918669 524.397667 
L 109.176913 524.410292 
L 109.435156 524.279511 
L 110.209888 524.324827 
L 110.726375 524.117768 
L 110.984619 524.199351 
L 111.75935 524.040329 
L 112.017594 524.109572 
L 112.275838 523.917257 
L 113.308813 523.79882 
L 113.567056 523.911747 
L 113.8253 523.698086 
L 115.116519 523.626544 
L 115.89125 523.343937 
L 118.990175 522.702674 
L 119.248419 522.446741 
L 119.506663 522.435185 
L 119.764906 522.241058 
L 120.02315 522.356393 
L 120.797881 522.041941 
L 121.056125 522.050539 
L 121.572613 521.781475 
L 122.605588 521.565229 
L 123.122075 521.306913 
L 123.380319 521.484703 
L 124.671538 521.032237 
L 128.545194 520.44986 
L 128.803438 520.494241 
L 129.578169 520.215194 
L 129.836412 520.314981 
L 131.385875 520.073283 
L 131.644119 519.919837 
L 131.902363 520.065872 
L 132.677094 519.95892 
L 132.935338 519.828027 
L 133.193581 519.913592 
L 133.451825 519.767547 
L 133.710069 519.817367 
L 134.226556 519.732746 
L 135.001288 519.643597 
L 135.259531 519.518363 
L 136.55075 519.450642 
L 137.325481 519.214723 
L 137.583725 519.381367 
L 137.841969 519.181685 
L 138.6167 519.226111 
L 139.391431 518.957661 
L 139.649675 519.15564 
L 139.907919 519.095864 
L 140.166163 518.91304 
L 141.199138 518.815424 
L 141.457381 518.697788 
L 141.715625 518.712957 
L 141.973869 518.603007 
L 142.490356 518.639689 
L 142.7486 518.664575 
L 143.006844 518.414532 
L 143.265087 518.538339 
L 143.523331 518.379688 
L 143.781575 518.416698 
L 144.81455 518.199663 
L 145.072794 518.164099 
L 145.331038 517.958046 
L 146.8805 517.597911 
L 147.396988 517.46285 
L 147.913475 517.46942 
L 149.462938 516.800609 
L 149.721181 516.774292 
L 149.979425 516.606467 
L 150.237669 516.688547 
L 150.754156 516.480241 
L 151.0124 516.340578 
L 151.270644 516.356188 
L 151.528887 516.191068 
L 151.787131 516.316878 
L 152.303619 516.079551 
L 152.820106 516.120662 
L 153.336594 515.823307 
L 153.594838 515.73071 
L 153.853081 515.836603 
L 155.660788 515.560254 
L 156.177275 515.320994 
L 156.693762 515.444292 
L 161.858638 514.797721 
L 162.116881 514.785377 
L 162.633369 514.556978 
L 163.149856 514.545369 
L 163.4081 514.335458 
L 164.699319 514.357212 
L 165.990538 514.054121 
L 166.507025 514.176056 
L 167.023513 514.003146 
L 167.281756 514.10635 
L 167.54 513.914142 
L 169.60595 513.653391 
L 170.122437 513.608464 
L 170.897169 513.432234 
L 171.155413 513.530173 
L 171.930144 513.276553 
L 172.188388 513.3512 
L 172.446631 513.287822 
L 172.704875 513.051508 
L 172.963119 513.173456 
L 173.221362 513.013441 
L 173.73785 512.978664 
L 174.254338 512.839005 
L 174.512581 512.854634 
L 174.770825 512.624871 
L 175.029069 512.653192 
L 178.644481 511.51057 
L 179.160969 511.362555 
L 180.193944 511.055495 
L 180.968675 511.050772 
L 181.226919 510.827903 
L 181.485163 510.84854 
L 182.259894 510.661359 
L 182.518138 510.725832 
L 182.776381 510.49438 
L 183.034625 510.582039 
L 183.292869 510.488866 
L 183.551113 510.578602 
L 183.809356 510.406178 
L 184.0676 510.550213 
L 184.325844 510.321418 
L 185.100575 510.128951 
L 185.617063 510.192203 
L 188.1995 509.814588 
L 188.457744 509.894817 
L 188.715988 509.667589 
L 189.232475 509.614233 
L 189.490719 509.739059 
L 191.814913 509.252251 
L 192.073156 509.403548 
L 192.589644 509.212627 
L 192.847888 509.331593 
L 194.139106 509.094805 
L 194.39735 508.957932 
L 195.172081 508.982056 
L 195.430325 508.879139 
L 195.688569 508.959468 
L 195.946813 508.797133 
L 196.205056 508.897172 
L 197.754519 508.634764 
L 198.012763 508.61191 
L 198.271006 508.416036 
L 198.52925 508.544727 
L 199.303981 508.329199 
L 199.562225 508.372277 
L 199.820469 508.26713 
L 200.078712 508.29295 
L 200.336956 508.088171 
L 200.5952 508.14909 
L 201.369931 508.001246 
L 201.628175 508.022778 
L 201.886419 507.923277 
L 202.144663 508.019901 
L 203.694125 507.386938 
L 203.952369 507.277563 
L 204.210613 507.353907 
L 204.468856 507.121747 
L 204.7271 507.209659 
L 204.985344 507.173235 
L 205.243587 506.966766 
L 205.501831 507.049554 
L 205.760075 506.844798 
L 206.276563 506.880189 
L 209.117244 506.096101 
L 211.957925 505.591326 
L 216.606312 505.043963 
L 230.034987 503.560875 
L 232.617425 503.023813 
L 235.71635 502.100798 
L 238.298787 501.443378 
L 241.139469 500.974618 
L 246.304344 500.392262 
L 258.183556 499.096816 
L 261.024237 498.541858 
L 263.864919 497.715955 
L 266.7056 496.955025 
L 269.546281 496.466236 
L 274.452912 495.898653 
L 287.106856 494.507473 
L 289.689294 493.994072 
L 292.529975 493.170404 
L 295.370656 492.410244 
L 298.211337 491.92235 
L 303.117969 491.354884 
L 315.771912 489.960956 
L 318.612594 489.379629 
L 321.969762 488.390974 
L 324.5522 487.76618 
L 327.651125 487.282212 
L 333.590731 486.638522 
L 335.140194 486.486048 
L 335.140194 486.486048 
" style="fill:none;stroke:#1f77b4;stroke-linecap:square;stroke-width:1.5;"/>
   </g>
   <g id="line2d_66">
    <path clip-path="url(#p91e1724a92)" d="M 77.154688 529.986706 
L 87.742681 528.513958 
L 90.583363 527.868303 
L 97.814188 525.999402 
L 101.946088 525.387998 
L 119.248419 522.997003 
L 122.0891 522.287784 
L 127.253975 520.877174 
L 130.3529 520.339387 
L 138.358456 519.280393 
L 149.204694 517.780196 
L 152.045375 517.140888 
L 159.534444 515.213419 
L 163.924588 514.575542 
L 180.710431 512.266758 
L 183.551113 511.568758 
L 189.232475 510.033829 
L 192.589644 509.480954 
L 203.177638 508.10217 
L 211.699681 506.904764 
L 214.540362 506.222025 
L 220.479969 504.624107 
L 223.837137 504.076513 
L 234.941619 502.632756 
L 242.172444 501.594455 
L 245.013125 500.944337 
L 251.985706 499.113736 
L 255.859362 498.528996 
L 274.194669 495.978937 
L 277.03535 495.234229 
L 281.683737 493.956996 
L 284.782662 493.412479 
L 292.271731 492.422525 
L 303.8927 490.832044 
L 306.733381 490.193472 
L 314.22245 488.250442 
L 318.612594 487.614698 
L 335.140194 485.382805 
L 335.140194 485.382805 
" style="fill:none;stroke:#ff0000;stroke-dasharray:5.55,2.4;stroke-dashoffset:0;stroke-width:1.5;"/>
   </g>
   <g id="line2d_67">
    <path clip-path="url(#p91e1724a92)" d="M 77.154688 529.986706 
L 85.160244 528.851339 
L 91.616338 527.812779 
L 95.23175 527.194326 
L 96.264725 526.840971 
L 96.781213 526.463799 
L 97.039456 526.070902 
L 97.2977 525.105126 
L 97.814188 519.521965 
L 98.588919 490.786952 
L 98.847163 475.347373 
L 99.105406 446.25579 
L 99.621894 420.220283 
L 100.138381 352.401671 
L 100.396625 337.438797 
L 101.171356 247.439342 
L 101.946088 170.320659 
L 103.322491 -1 
M 104.443286 -1 
L 104.528525 529.987017 
L 209.117244 530.087372 
L 212.216169 530.418953 
L 215.573337 531.012445 
L 219.18875 531.866333 
L 221.2547 532.552637 
L 222.804162 533.267414 
L 224.353625 534.218977 
L 225.903087 535.434756 
L 227.710794 537.171336 
L 229.5185 539.228111 
L 231.326206 541.657764 
L 232.875669 544.148938 
L 234.425131 547.137318 
L 235.71635 550.083371 
L 237.007569 553.530181 
L 238.298787 557.651015 
L 239.331762 561.786199 
L 239.84825 564.454239 
L 240.410109 568.754687 
M 245.664859 568.754687 
L 246.0461 545.61802 
L 246.304344 532.520941 
L 247.595562 429.277318 
L 248.11205 375.732182 
L 249.145025 243.123056 
L 251.109572 -1 
M 260.229631 -1 
L 260.249506 529.987017 
L 335.140194 529.987017 
L 335.140194 529.987017 
" style="fill:none;stroke:#008000;stroke-dasharray:1.5,2.475;stroke-dashoffset:0;stroke-width:1.5;"/>
   </g>
   <g id="patch_28">
    <path d="M 77.154688 530.198437 
L 77.154688 477.131771 
" style="fill:none;stroke:#000000;stroke-linecap:square;stroke-linejoin:miter;stroke-width:0.8;"/>
   </g>
   <g id="patch_29">
    <path d="M 335.398438 530.198437 
L 335.398438 477.131771 
" style="fill:none;stroke:#000000;stroke-linecap:square;stroke-linejoin:miter;stroke-width:0.8;"/>
   </g>
   <g id="patch_30">
    <path d="M 77.154688 530.198437 
L 335.398438 530.198437 
" style="fill:none;stroke:#000000;stroke-linecap:square;stroke-linejoin:miter;stroke-width:0.8;"/>
   </g>
   <g id="patch_31">
    <path d="M 77.154688 477.131771 
L 335.398438 477.131771 
" style="fill:none;stroke:#000000;stroke-linecap:square;stroke-linejoin:miter;stroke-width:0.8;"/>
   </g>
  </g>
  <g id="legend_1">
   <g id="patch_32">
    <path d="M 406.851562 59.552812 
L 525.573437 59.552812 
Q 527.573437 59.552812 527.573437 57.552812 
L 527.573437 14.518438 
Q 527.573437 12.518438 525.573437 12.518438 
L 406.851562 12.518438 
Q 404.851562 12.518438 404.851562 14.518438 
L 404.851562 57.552812 
Q 404.851562 59.552812 406.851562 59.552812 
z
" style="fill:#ffffff;opacity:0.8;stroke:#cccccc;stroke-linejoin:miter;"/>
   </g>
   <g id="line2d_68">
    <path d="M 408.851562 20.616875 
L 428.851562 20.616875 
" style="fill:none;stroke:#1f77b4;stroke-linecap:square;stroke-width:1.5;"/>
   </g>
   <g id="line2d_69"/>
   <g id="text_59">
    <!-- True Model -->
    <g transform="translate(436.851562 24.116875)scale(0.1 -0.1)">
     <defs>
      <path d="M -0.296875 72.90625 
L 61.375 72.90625 
L 61.375 64.59375 
L 35.5 64.59375 
L 35.5 0 
L 25.59375 0 
L 25.59375 64.59375 
L -0.296875 64.59375 
z
" id="DejaVuSans-84"/>
      <path d="M 8.5 21.578125 
L 8.5 54.6875 
L 17.484375 54.6875 
L 17.484375 21.921875 
Q 17.484375 14.15625 20.5 10.265625 
Q 23.53125 6.390625 29.59375 6.390625 
Q 36.859375 6.390625 41.078125 11.03125 
Q 45.3125 15.671875 45.3125 23.6875 
L 45.3125 54.6875 
L 54.296875 54.6875 
L 54.296875 0 
L 45.3125 0 
L 45.3125 8.40625 
Q 42.046875 3.421875 37.71875 1 
Q 33.40625 -1.421875 27.6875 -1.421875 
Q 18.265625 -1.421875 13.375 4.4375 
Q 8.5 10.296875 8.5 21.578125 
z
M 31.109375 56 
z
" id="DejaVuSans-117"/>
      <path d="M 9.8125 72.90625 
L 24.515625 72.90625 
L 43.109375 23.296875 
L 61.8125 72.90625 
L 76.515625 72.90625 
L 76.515625 0 
L 66.890625 0 
L 66.890625 64.015625 
L 48.09375 14.015625 
L 38.1875 14.015625 
L 19.390625 64.015625 
L 19.390625 0 
L 9.8125 0 
z
" id="DejaVuSans-77"/>
      <path d="M 30.609375 48.390625 
Q 23.390625 48.390625 19.1875 42.75 
Q 14.984375 37.109375 14.984375 27.296875 
Q 14.984375 17.484375 19.15625 11.84375 
Q 23.34375 6.203125 30.609375 6.203125 
Q 37.796875 6.203125 41.984375 11.859375 
Q 46.1875 17.53125 46.1875 27.296875 
Q 46.1875 37.015625 41.984375 42.703125 
Q 37.796875 48.390625 30.609375 48.390625 
z
M 30.609375 56 
Q 42.328125 56 49.015625 48.375 
Q 55.71875 40.765625 55.71875 27.296875 
Q 55.71875 13.875 49.015625 6.21875 
Q 42.328125 -1.421875 30.609375 -1.421875 
Q 18.84375 -1.421875 12.171875 6.21875 
Q 5.515625 13.875 5.515625 27.296875 
Q 5.515625 40.765625 12.171875 48.375 
Q 18.84375 56 30.609375 56 
z
" id="DejaVuSans-111"/>
      <path d="M 9.421875 75.984375 
L 18.40625 75.984375 
L 18.40625 0 
L 9.421875 0 
z
" id="DejaVuSans-108"/>
     </defs>
     <use xlink:href="#DejaVuSans-84"/>
     <use x="46.333984" xlink:href="#DejaVuSans-114"/>
     <use x="87.447266" xlink:href="#DejaVuSans-117"/>
     <use x="150.826172" xlink:href="#DejaVuSans-101"/>
     <use x="212.349609" xlink:href="#DejaVuSans-32"/>
     <use x="244.136719" xlink:href="#DejaVuSans-77"/>
     <use x="330.416016" xlink:href="#DejaVuSans-111"/>
     <use x="391.597656" xlink:href="#DejaVuSans-100"/>
     <use x="455.074219" xlink:href="#DejaVuSans-101"/>
     <use x="516.597656" xlink:href="#DejaVuSans-108"/>
    </g>
   </g>
   <g id="line2d_70">
    <path d="M 408.851562 35.295 
L 428.851562 35.295 
" style="fill:none;stroke:#ff0000;stroke-dasharray:5.55,2.4;stroke-dashoffset:0;stroke-width:1.5;"/>
   </g>
   <g id="line2d_71"/>
   <g id="text_60">
    <!-- Proposed Method -->
    <g transform="translate(436.851562 38.795)scale(0.1 -0.1)">
     <defs>
      <path d="M 19.671875 64.796875 
L 19.671875 37.40625 
L 32.078125 37.40625 
Q 38.96875 37.40625 42.71875 40.96875 
Q 46.484375 44.53125 46.484375 51.125 
Q 46.484375 57.671875 42.71875 61.234375 
Q 38.96875 64.796875 32.078125 64.796875 
z
M 9.8125 72.90625 
L 32.078125 72.90625 
Q 44.34375 72.90625 50.609375 67.359375 
Q 56.890625 61.8125 56.890625 51.125 
Q 56.890625 40.328125 50.609375 34.8125 
Q 44.34375 29.296875 32.078125 29.296875 
L 19.671875 29.296875 
L 19.671875 0 
L 9.8125 0 
z
" id="DejaVuSans-80"/>
      <path d="M 18.109375 8.203125 
L 18.109375 -20.796875 
L 9.078125 -20.796875 
L 9.078125 54.6875 
L 18.109375 54.6875 
L 18.109375 46.390625 
Q 20.953125 51.265625 25.265625 53.625 
Q 29.59375 56 35.59375 56 
Q 45.5625 56 51.78125 48.09375 
Q 58.015625 40.1875 58.015625 27.296875 
Q 58.015625 14.40625 51.78125 6.484375 
Q 45.5625 -1.421875 35.59375 -1.421875 
Q 29.59375 -1.421875 25.265625 0.953125 
Q 20.953125 3.328125 18.109375 8.203125 
z
M 48.6875 27.296875 
Q 48.6875 37.203125 44.609375 42.84375 
Q 40.53125 48.484375 33.40625 48.484375 
Q 26.265625 48.484375 22.1875 42.84375 
Q 18.109375 37.203125 18.109375 27.296875 
Q 18.109375 17.390625 22.1875 11.75 
Q 26.265625 6.109375 33.40625 6.109375 
Q 40.53125 6.109375 44.609375 11.75 
Q 48.6875 17.390625 48.6875 27.296875 
z
" id="DejaVuSans-112"/>
      <path d="M 54.890625 33.015625 
L 54.890625 0 
L 45.90625 0 
L 45.90625 32.71875 
Q 45.90625 40.484375 42.875 44.328125 
Q 39.84375 48.1875 33.796875 48.1875 
Q 26.515625 48.1875 22.3125 43.546875 
Q 18.109375 38.921875 18.109375 30.90625 
L 18.109375 0 
L 9.078125 0 
L 9.078125 75.984375 
L 18.109375 75.984375 
L 18.109375 46.1875 
Q 21.34375 51.125 25.703125 53.5625 
Q 30.078125 56 35.796875 56 
Q 45.21875 56 50.046875 50.171875 
Q 54.890625 44.34375 54.890625 33.015625 
z
" id="DejaVuSans-104"/>
     </defs>
     <use xlink:href="#DejaVuSans-80"/>
     <use x="58.552734" xlink:href="#DejaVuSans-114"/>
     <use x="97.416016" xlink:href="#DejaVuSans-111"/>
     <use x="158.597656" xlink:href="#DejaVuSans-112"/>
     <use x="222.074219" xlink:href="#DejaVuSans-111"/>
     <use x="283.255859" xlink:href="#DejaVuSans-115"/>
     <use x="335.355469" xlink:href="#DejaVuSans-101"/>
     <use x="396.878906" xlink:href="#DejaVuSans-100"/>
     <use x="460.355469" xlink:href="#DejaVuSans-32"/>
     <use x="492.142578" xlink:href="#DejaVuSans-77"/>
     <use x="578.421875" xlink:href="#DejaVuSans-101"/>
     <use x="639.945312" xlink:href="#DejaVuSans-116"/>
     <use x="679.154297" xlink:href="#DejaVuSans-104"/>
     <use x="742.533203" xlink:href="#DejaVuSans-111"/>
     <use x="803.714844" xlink:href="#DejaVuSans-100"/>
    </g>
   </g>
   <g id="line2d_72">
    <path d="M 408.851562 49.973125 
L 428.851562 49.973125 
" style="fill:none;stroke:#008000;stroke-dasharray:1.5,2.475;stroke-dashoffset:0;stroke-width:1.5;"/>
   </g>
   <g id="line2d_73"/>
   <g id="text_61">
    <!-- SINDy-PI -->
    <g transform="translate(436.851562 53.473125)scale(0.1 -0.1)">
     <defs>
      <path d="M 53.515625 70.515625 
L 53.515625 60.890625 
Q 47.90625 63.578125 42.921875 64.890625 
Q 37.9375 66.21875 33.296875 66.21875 
Q 25.25 66.21875 20.875 63.09375 
Q 16.5 59.96875 16.5 54.203125 
Q 16.5 49.359375 19.40625 46.890625 
Q 22.3125 44.4375 30.421875 42.921875 
L 36.375 41.703125 
Q 47.40625 39.59375 52.65625 34.296875 
Q 57.90625 29 57.90625 20.125 
Q 57.90625 9.515625 50.796875 4.046875 
Q 43.703125 -1.421875 29.984375 -1.421875 
Q 24.8125 -1.421875 18.96875 -0.25 
Q 13.140625 0.921875 6.890625 3.21875 
L 6.890625 13.375 
Q 12.890625 10.015625 18.65625 8.296875 
Q 24.421875 6.59375 29.984375 6.59375 
Q 38.421875 6.59375 43.015625 9.90625 
Q 47.609375 13.234375 47.609375 19.390625 
Q 47.609375 24.75 44.3125 27.78125 
Q 41.015625 30.8125 33.5 32.328125 
L 27.484375 33.5 
Q 16.453125 35.6875 11.515625 40.375 
Q 6.59375 45.0625 6.59375 53.421875 
Q 6.59375 63.09375 13.40625 68.65625 
Q 20.21875 74.21875 32.171875 74.21875 
Q 37.3125 74.21875 42.625 73.28125 
Q 47.953125 72.359375 53.515625 70.515625 
z
" id="DejaVuSans-83"/>
      <path d="M 9.8125 72.90625 
L 19.671875 72.90625 
L 19.671875 0 
L 9.8125 0 
z
" id="DejaVuSans-73"/>
      <path d="M 9.8125 72.90625 
L 23.09375 72.90625 
L 55.421875 11.921875 
L 55.421875 72.90625 
L 64.984375 72.90625 
L 64.984375 0 
L 51.703125 0 
L 19.390625 60.984375 
L 19.390625 0 
L 9.8125 0 
z
" id="DejaVuSans-78"/>
      <path d="M 19.671875 64.796875 
L 19.671875 8.109375 
L 31.59375 8.109375 
Q 46.6875 8.109375 53.6875 14.9375 
Q 60.6875 21.78125 60.6875 36.53125 
Q 60.6875 51.171875 53.6875 57.984375 
Q 46.6875 64.796875 31.59375 64.796875 
z
M 9.8125 72.90625 
L 30.078125 72.90625 
Q 51.265625 72.90625 61.171875 64.09375 
Q 71.09375 55.28125 71.09375 36.53125 
Q 71.09375 17.671875 61.125 8.828125 
Q 51.171875 0 30.078125 0 
L 9.8125 0 
z
" id="DejaVuSans-68"/>
      <path d="M 32.171875 -5.078125 
Q 28.375 -14.84375 24.75 -17.8125 
Q 21.140625 -20.796875 15.09375 -20.796875 
L 7.90625 -20.796875 
L 7.90625 -13.28125 
L 13.1875 -13.28125 
Q 16.890625 -13.28125 18.9375 -11.515625 
Q 21 -9.765625 23.484375 -3.21875 
L 25.09375 0.875 
L 2.984375 54.6875 
L 12.5 54.6875 
L 29.59375 11.921875 
L 46.6875 54.6875 
L 56.203125 54.6875 
z
" id="DejaVuSans-121"/>
      <path d="M 4.890625 31.390625 
L 31.203125 31.390625 
L 31.203125 23.390625 
L 4.890625 23.390625 
z
" id="DejaVuSans-45"/>
     </defs>
     <use xlink:href="#DejaVuSans-83"/>
     <use x="63.476562" xlink:href="#DejaVuSans-73"/>
     <use x="92.96875" xlink:href="#DejaVuSans-78"/>
     <use x="167.773438" xlink:href="#DejaVuSans-68"/>
     <use x="244.775391" xlink:href="#DejaVuSans-121"/>
     <use x="302.205078" xlink:href="#DejaVuSans-45"/>
     <use x="338.289062" xlink:href="#DejaVuSans-80"/>
     <use x="398.591797" xlink:href="#DejaVuSans-73"/>
    </g>
   </g>
  </g>
 </g>
 <defs>
  <clipPath id="p4b8810a57f">
   <rect height="53.066667" width="258.24375" x="77.154688" y="17.798437"/>
  </clipPath>
  <clipPath id="p2a74fbce20">
   <rect height="53.066667" width="258.24375" x="77.154688" y="109.665104"/>
  </clipPath>
  <clipPath id="p139973c525">
   <rect height="53.066667" width="258.24375" x="77.154688" y="201.531771"/>
  </clipPath>
  <clipPath id="ped63b5003c">
   <rect height="53.066667" width="258.24375" x="77.154688" y="293.398437"/>
  </clipPath>
  <clipPath id="p944d38c7b4">
   <rect height="53.066667" width="258.24375" x="77.154688" y="385.265104"/>
  </clipPath>
  <clipPath id="p91e1724a92">
   <rect height="53.066667" width="258.24375" x="77.154688" y="477.131771"/>
  </clipPath>
 </defs>
</svg>
